<svg width="475" height="285" viewBox="0 0 475 285" fill="none" xmlns="http://www.w3.org/2000/svg">
<g clip-path="url(#clip0_823_10942)">
<g filter="url(#filter0_d_823_10942)">
<path d="M440.563 34.8276C438.835 30.8173 438.4 26.1874 439.272 21.9174L437.53 4.49426L403.555 7.89058C403.617 10.9999 403.734 14.1038 403.875 17.1764C419.224 22.854 419.431 50.9023 399.79 52.8658C378.863 54.9577 374.218 23.6894 391.621 17.3052C391.514 14.5753 391.407 11.8455 391.352 9.08163L348.322 13.3831C348.266 16.4177 348.158 19.4863 348.048 22.5264C363.828 27.8148 364.253 56.3894 344.42 58.372C324.588 60.3545 318.927 29.707 335.825 22.9694C335.934 20.1891 336.04 17.3803 336.119 14.5741L290.353 19.1491C290.478 22.0503 290.629 24.9488 290.811 27.8731C307.528 32.3177 308.366 61.9761 288.123 63.9997C267.88 66.0233 262.829 36.4976 278.575 29.0097C278.398 26.1425 278.25 23.2726 278.128 20.4L226.81 25.53C227.077 27.9265 227.372 30.3203 227.642 32.7454C245.564 35.9733 246.96 67.076 226.225 69.1488C205.489 71.2216 201.188 43.121 215.494 34.7675C215.198 32.0853 214.878 29.4345 214.582 26.7524L167.422 31.4667C167.591 33.4403 167.764 35.4424 167.933 37.4159C186.629 39.8165 188.396 71.863 167.36 73.9658C147.883 75.9128 142.542 49.0125 155.851 40.095C155.633 37.6359 155.415 35.1768 155.197 32.7177L113.261 36.9097C113.323 40.0191 113.44 43.123 113.581 46.1956C128.93 51.8732 129.137 79.9215 109.496 81.8849C88.5693 83.9769 83.924 52.7086 101.327 46.3243C101.22 43.5945 101.113 40.8647 101.058 38.1008L58.0279 42.4023C57.9721 45.4369 57.8645 48.5055 57.7539 51.5456C73.5336 56.834 73.9587 85.4086 54.1261 87.3911C34.2936 89.3737 28.6328 58.7261 45.5311 51.9885C45.64 49.2083 45.746 46.3994 45.8246 43.5933L3.50607 47.8237L25.6599 269.44L459.678 226.053L440.563 34.8276Z" fill="#9673EC"/>
</g>
<path d="M46.8082 128.885L90.3304 124.534C95.5552 124.012 100.807 123.487 106.032 122.964C109.123 122.655 111.952 122.488 115.071 122.176C117.533 121.93 119.995 121.684 122.457 121.438C127.135 120.97 131.523 120.647 136.228 120.177C141.425 119.657 146.623 119.138 151.82 118.618C157.018 118.098 162.544 117.546 167.933 117.007C170.668 116.734 173.149 116.399 175.827 116.103C180.143 115.614 184.684 115.16 189.031 114.696C191.931 114.406 194.658 114.047 197.554 113.729C199.962 113.488 202.369 113.248 204.749 113.01L222.311 111.254C224.445 111.041 226.578 110.827 228.712 110.614C231.448 110.341 233.863 110.186 236.547 109.946C241.775 109.453 247.161 108.885 252.413 108.36L264.832 107.119C268.553 106.747 272.869 106.258 276.513 105.951C282.163 105.531 288.002 104.803 293.622 104.356C299.268 103.907 304.925 103.284 310.672 102.738C314.584 102.347 318.316 102.09 322.255 101.696C325.702 101.351 329.176 101.004 332.623 100.659C336.398 100.282 339.945 99.8409 343.663 99.4405C346.973 99.1096 350.283 98.7787 353.593 98.4478C357.696 98.0377 362.273 97.6667 366.286 97.179C369.97 96.7242 373.472 96.3741 377.274 95.994C381.569 95.5647 385.633 95.043 389.983 94.6082C392.554 94.3512 395.098 94.0968 397.669 93.8398C402.216 93.443 406.522 93.1279 411.121 92.6971" stroke="white" stroke-width="0.5" stroke-linecap="round" stroke-linejoin="round"/>
<path d="M50.4699 172.206L93.9921 167.856C99.2169 167.333 104.469 166.808 109.694 166.286C112.785 165.977 115.614 165.81 118.733 165.498C121.195 165.252 123.657 165.006 126.119 164.76C130.796 164.292 135.185 163.969 139.89 163.498C145.087 162.979 150.285 162.459 155.482 161.94C160.68 161.42 166.205 160.868 171.594 160.329C174.33 160.055 176.811 159.721 179.489 159.424C183.805 158.935 188.346 158.481 192.693 158.018C195.592 157.728 198.319 157.369 201.216 157.051C203.623 156.81 206.031 156.569 208.411 156.331L225.973 154.576C228.106 154.362 230.24 154.149 232.374 153.936C235.109 153.662 237.525 153.507 240.209 153.268C245.436 152.774 250.823 152.207 256.075 151.682L268.494 150.44C272.214 150.069 276.531 149.579 280.175 149.273C285.824 148.852 291.664 148.124 297.283 147.678C302.93 147.229 308.587 146.606 314.334 146.06C318.246 145.669 321.978 145.411 325.917 145.018C329.364 144.673 332.838 144.326 336.284 143.981C340.059 143.604 343.607 143.163 347.325 142.762C350.635 142.431 353.945 142.1 357.255 141.769C361.358 141.359 365.935 140.988 369.947 140.501C373.632 140.046 377.133 139.696 380.936 139.316C385.23 138.886 389.295 138.365 393.644 137.93C396.216 137.673 398.76 137.418 401.331 137.161C405.878 136.765 410.184 136.45 414.783 136.019" stroke="white" stroke-width="0.5" stroke-linecap="round" stroke-linejoin="round"/>
<path d="M55.6508 217.343L99.173 212.992C104.398 212.47 109.65 211.945 114.875 211.422C117.966 211.113 120.795 210.946 123.914 210.634C126.376 210.388 128.838 210.142 131.3 209.896C135.977 209.428 140.366 209.105 145.071 208.635C150.268 208.115 155.466 207.595 160.663 207.076C165.861 206.556 171.386 206.004 176.775 205.465C179.511 205.192 181.992 204.857 184.67 204.561C188.986 204.071 193.527 203.618 197.874 203.154C200.773 202.864 203.5 202.505 206.397 202.187C208.804 201.946 211.212 201.705 213.592 201.468L231.154 199.712C233.287 199.499 235.421 199.285 237.555 199.072C240.29 198.799 242.706 198.644 245.39 198.404C250.617 197.911 256.004 197.343 261.256 196.818L273.675 195.577C277.395 195.205 281.712 194.716 285.356 194.409C291.005 193.989 296.845 193.261 302.464 192.814C308.111 192.365 313.768 191.742 319.515 191.196C323.427 190.805 327.159 190.548 331.098 190.154C334.545 189.809 338.019 189.462 341.465 189.117C345.24 188.74 348.788 188.299 352.506 187.898C355.816 187.568 359.126 187.237 362.435 186.906C366.539 186.496 371.116 186.125 375.128 185.637C378.813 185.182 382.314 184.832 386.117 184.452C390.411 184.023 394.476 183.501 398.825 183.066C401.397 182.809 403.941 182.555 406.512 182.298C411.059 181.901 415.365 181.586 419.964 181.155" stroke="white" stroke-width="0.5" stroke-linecap="round" stroke-linejoin="round"/>
<path d="M66.2573 106.261L69.2484 105.962L70.9403 122.888L67.9493 123.187L67.2098 115.79L64.559 116.055L65.2985 123.452L62.3074 123.751L60.6154 106.825L63.6065 106.526L64.303 113.494L66.9538 113.229L66.2573 106.261ZM72.4792 105.549L75.3986 105.257L75.558 106.851L72.6385 107.143L72.4792 105.549ZM72.6922 107.861L75.6475 107.566L77.1175 122.271L74.1622 122.566L72.6922 107.861ZM80.1333 118.623L83.1423 118.322L83.4968 121.868C83.5481 122.382 83.4168 122.817 83.1027 123.174C82.7899 123.543 82.3051 123.76 81.6484 123.826L80.6633 123.924L80.563 122.921L81.1182 122.866C81.6914 122.808 81.9493 122.493 81.892 121.92L81.8795 121.795L80.4645 121.936L80.1333 118.623ZM89.5426 103.934L92.5337 103.635L94.2257 120.56L91.2346 120.859L89.5426 103.934ZM96.0161 103.287L99.0251 102.986L99.3796 106.532C99.4309 107.046 99.3002 107.487 98.9873 107.856C98.6733 108.213 98.1879 108.424 97.5312 108.49L96.5461 108.588L96.4458 107.585L97.001 107.53C97.5742 107.472 97.8321 107.157 97.7748 106.584L97.7623 106.459L96.3473 106.6L96.0161 103.287ZM113.79 103.554C114.556 103.49 115.184 103.68 115.674 104.125C116.164 104.559 116.461 105.295 116.565 106.334L117.752 118.209L114.814 118.502L113.684 107.381C113.604 106.581 113.23 106.215 112.561 106.282C112.167 106.321 111.847 106.498 111.601 106.812C111.366 107.113 111.274 107.52 111.326 108.033L112.396 118.744L109.459 119.038L108.329 107.917C108.249 107.117 107.869 106.751 107.188 106.819C106.794 106.858 106.474 107.035 106.228 107.349C105.993 107.65 105.902 108.063 105.954 108.588L107.023 119.281L104.086 119.575L102.616 104.87L105.249 104.607L105.687 106.282C105.957 105.724 106.324 105.235 106.789 104.815C107.253 104.394 107.784 104.154 108.381 104.095C109.026 104.03 109.548 104.123 109.947 104.372C110.345 104.622 110.675 105.083 110.935 105.757C111.691 104.391 112.643 103.657 113.79 103.554ZM132.512 104.993L129.557 105.288L129.408 103.802C129.315 102.87 128.785 102.453 127.818 102.55C127.376 102.594 127.047 102.741 126.831 102.992C126.615 103.243 126.524 103.541 126.558 103.888L126.7 105.303C126.738 105.685 126.851 105.969 127.038 106.155C127.238 106.34 127.554 106.489 127.988 106.603L129.673 106.995C130.811 107.279 131.672 107.688 132.256 108.22C132.85 108.74 133.205 109.573 133.32 110.719L133.502 112.546C133.631 113.835 133.322 114.909 132.576 115.768C131.84 116.613 130.798 117.103 129.449 117.238C128.064 117.377 126.937 117.14 126.067 116.527C125.21 115.913 124.723 115.021 124.606 113.851L124.393 111.72L127.384 111.421L127.568 113.266C127.612 113.707 127.774 114.059 128.054 114.321C128.333 114.582 128.712 114.689 129.189 114.641C129.631 114.597 129.97 114.425 130.205 114.124C130.44 113.823 130.537 113.469 130.497 113.063L130.323 111.326C130.245 110.55 129.731 110.053 128.781 109.834L127.006 109.451C125.983 109.227 125.208 108.84 124.683 108.29C124.158 107.74 123.842 106.933 123.736 105.87L123.578 104.294C123.468 103.196 123.752 102.233 124.429 101.405C125.106 100.578 126.167 100.092 127.612 99.9473C129.009 99.8076 130.117 100.035 130.936 100.628C131.755 101.221 132.22 102.067 132.329 103.166L132.512 104.993ZM142.274 115.757L141.842 113.973C141.391 115.369 140.484 116.135 139.123 116.271C138.323 116.351 137.614 116.139 136.997 115.634C136.38 115.128 136.021 114.374 135.921 113.371L135.758 111.742C135.563 109.795 136.414 108.408 138.308 107.579L140.997 106.424L140.798 104.436C140.765 104.102 140.636 103.843 140.413 103.66C140.201 103.465 139.897 103.386 139.503 103.426C139.085 103.467 138.786 103.612 138.606 103.859C138.424 104.094 138.35 104.379 138.384 104.713L138.536 106.236L135.688 106.521L135.513 104.765C135.412 103.762 135.666 102.923 136.274 102.247C136.893 101.558 137.888 101.145 139.262 101.008C142.02 100.732 143.529 101.896 143.789 104.499L144.889 115.496L142.274 115.757ZM141.255 108.822L139.679 109.523C138.939 109.85 138.61 110.413 138.69 111.213L138.822 112.72C138.855 113.042 138.97 113.296 139.17 113.481C139.38 113.653 139.652 113.722 139.986 113.689C140.44 113.643 140.823 113.43 141.135 113.049C141.457 112.655 141.587 112.148 141.525 111.527L141.255 108.822ZM152.125 99.7399C152.854 99.6671 153.459 99.8719 153.942 100.354C154.435 100.824 154.738 101.625 154.851 102.76L155.367 107.918L152.43 108.212L151.986 103.77C151.936 103.268 151.828 102.917 151.663 102.717C151.509 102.503 151.247 102.415 150.877 102.452C150.507 102.489 150.202 102.7 149.964 103.086C149.735 103.458 149.653 103.961 149.716 104.594L150.748 114.91L147.81 115.204L146.34 100.499L148.973 100.236L149.324 101.937C149.691 101.262 150.068 100.748 150.454 100.395C150.852 100.03 151.409 99.8115 152.125 99.7399ZM157.952 100.351C158.636 99.475 159.67 98.9676 161.056 98.8291C162.441 98.6907 163.549 98.9838 164.382 99.7087C165.214 100.433 165.703 101.53 165.85 102.999L166.437 108.874C166.585 110.354 166.317 111.533 165.633 112.409C164.961 113.284 163.932 113.791 162.547 113.93C161.162 114.068 160.053 113.775 159.221 113.05C158.389 112.325 157.899 111.223 157.751 109.742L157.163 103.867C157.017 102.399 157.279 101.227 157.952 100.351ZM163.47 109.405L162.838 103.083C162.71 101.805 162.198 101.211 161.303 101.301C160.861 101.345 160.531 101.547 160.314 101.906C160.107 102.252 160.035 102.736 160.097 103.357L160.711 109.681C160.773 110.302 160.941 110.768 161.213 111.078C161.496 111.376 161.864 111.502 162.318 111.456C163.213 111.367 163.597 110.683 163.47 109.405ZM168.294 95.971L171.249 95.6756L171.408 97.2696L168.453 97.565L168.294 95.971ZM168.525 98.2815L171.462 97.9878L172.88 112.173C172.958 112.949 172.78 113.588 172.348 114.09C171.916 114.591 171.3 114.882 170.5 114.962L168.708 115.141L168.467 112.723L169.255 112.644C169.506 112.619 169.678 112.535 169.772 112.393C169.866 112.239 169.894 111.983 169.858 111.625L168.525 98.2815ZM190.247 110.962L186.773 111.309L182.818 103.962L182.603 103.983L183.37 111.649L180.396 111.946L178.705 95.0207L181.696 94.7217L182.428 102.228L182.643 102.207L184.955 94.3959L188.197 94.0718L185.439 102.669L190.247 110.962ZM196.567 95.2793C197.32 95.216 197.942 95.4071 198.433 95.8525C198.935 96.2847 199.237 97.0203 199.341 98.0591L200.528 109.934L197.591 110.228L196.479 99.105C196.399 98.305 195.995 97.9414 195.266 98.0142C194.872 98.0536 194.552 98.2303 194.306 98.5443C194.071 98.8452 193.98 99.2583 194.032 99.7837L195.101 110.476L192.164 110.77L190.463 93.7548L193.4 93.4612L193.801 97.4732C194.038 96.9431 194.394 96.4613 194.869 96.0279C195.355 95.5813 195.921 95.3318 196.567 95.2793ZM208.979 109.089L208.548 107.305C208.096 108.701 207.19 109.467 205.829 109.603C205.029 109.683 204.32 109.47 203.703 108.965C203.085 108.46 202.727 107.706 202.626 106.703L202.463 105.073C202.269 103.127 203.119 101.74 205.014 100.911L207.702 99.7558L207.504 97.7677C207.47 97.4334 207.342 97.1749 207.119 96.9922C206.906 96.7963 206.603 96.7181 206.209 96.7575C205.791 96.7993 205.492 96.9437 205.312 97.1909C205.13 97.4261 205.056 97.7109 205.089 98.0452L205.242 99.5677L202.394 99.8523L202.218 98.0971C202.118 97.0941 202.372 96.2547 202.98 95.5789C203.598 94.8899 204.594 94.4768 205.967 94.3396C208.725 94.0638 210.235 95.2275 210.495 97.8305L211.594 108.828L208.979 109.089ZM207.96 102.154L206.384 102.854C205.645 103.181 205.315 103.745 205.395 104.545L205.528 106.051C205.56 106.374 205.676 106.627 205.875 106.813C206.086 106.984 206.358 107.054 206.692 107.02C207.146 106.975 207.529 106.762 207.84 106.381C208.163 105.987 208.293 105.479 208.231 104.859L207.96 102.154ZM215.587 93.3779C216.232 93.3134 216.773 93.4161 217.21 93.686C217.646 93.9439 218.065 94.3362 218.467 94.8628L218.081 90.994L221.018 90.7004L222.719 107.716L219.782 108.009L219.615 106.344C219.376 106.97 219.059 107.472 218.662 107.85C218.277 108.214 217.755 108.423 217.097 108.477C216.26 108.548 215.549 108.318 214.965 107.785C214.38 107.241 214.025 106.342 213.9 105.088L213.125 97.3325C212.999 96.0787 213.169 95.1271 213.635 94.4775C214.101 93.828 214.752 93.4614 215.587 93.3779ZM217.214 95.7117C216.378 95.7952 216.019 96.4281 216.137 97.6102L216.8 104.237C216.917 105.407 217.393 105.951 218.229 105.867C219.1 105.78 219.475 105.121 219.352 103.892L218.706 97.4258C218.583 96.1959 218.085 95.6245 217.214 95.7117ZM228.052 100.109L228.752 107.113L225.797 107.408L224.096 90.3927L227.051 90.0973L227.911 98.6945L228.108 98.6748L230.291 92.107L233.479 91.7883L231.027 98.9256L235.182 106.47L231.851 106.803L228.267 100.088L228.052 100.109ZM242.665 105.722L242.233 103.938C241.782 105.334 240.875 106.1 239.514 106.236C238.714 106.316 238.005 106.103 237.388 105.598C236.771 105.093 236.412 104.339 236.312 103.336L236.149 101.706C235.954 99.7596 236.805 98.3722 238.7 97.5436L241.388 96.3884L241.189 94.4004C241.156 94.066 241.027 93.8075 240.804 93.6248C240.592 93.429 240.288 93.3508 239.894 93.3901C239.476 93.4319 239.177 93.5764 238.997 93.8236C238.815 94.0588 238.741 94.3435 238.775 94.6779L238.927 96.2003L236.079 96.485L235.904 94.7297C235.804 93.7267 236.057 92.8873 236.665 92.2115C237.284 91.5226 238.279 91.1095 239.653 90.9722C242.411 90.6965 243.92 91.8601 244.18 94.4631L245.28 105.46L242.665 105.722ZM241.646 98.7867L240.07 99.4869C239.331 99.8141 239.001 100.378 239.081 101.178L239.213 102.684C239.246 103.006 239.361 103.26 239.561 103.445C239.771 103.617 240.043 103.686 240.378 103.653C240.831 103.608 241.214 103.394 241.526 103.014C241.848 102.62 241.978 102.112 241.916 101.491L241.646 98.7867ZM248.139 101.828L251.148 101.527L251.502 105.073C251.554 105.587 251.422 106.022 251.108 106.379C250.795 106.748 250.311 106.965 249.654 107.031L248.669 107.13L248.568 106.127L249.124 106.071C249.697 106.014 249.955 105.698 249.897 105.125L249.885 105L248.47 105.141L248.139 101.828ZM264.631 103.526L264.2 101.742C263.748 103.138 262.842 103.904 261.481 104.04C260.681 104.12 259.972 103.907 259.355 103.402C258.737 102.897 258.379 102.143 258.278 101.14L258.115 99.5101C257.921 97.5638 258.771 96.1763 260.666 95.3477L263.354 94.1926L263.156 92.2045C263.122 91.8701 262.994 91.6116 262.771 91.4289C262.558 91.2331 262.255 91.1549 261.861 91.1943C261.443 91.236 261.144 91.3805 260.964 91.6277C260.782 91.8629 260.708 92.1477 260.741 92.482L260.894 94.0044L258.046 94.2891L257.87 92.5338C257.77 91.5308 258.024 90.6914 258.632 90.0156C259.25 89.3267 260.246 88.9136 261.619 88.7763C264.377 88.5006 265.887 89.6642 266.147 92.2673L267.246 103.264L264.631 103.526ZM263.612 96.5908L262.036 97.2911C261.297 97.6182 260.967 98.1818 261.047 98.9818L261.18 100.488C261.212 100.81 261.328 101.064 261.527 101.249C261.738 101.421 262.01 101.491 262.344 101.457C262.798 101.412 263.181 101.199 263.492 100.818C263.815 100.424 263.945 99.9162 263.883 99.2953L263.612 96.5908ZM280.113 102.159C279.456 102.225 278.91 102.129 278.474 101.871C278.037 101.601 277.617 101.203 277.215 100.676L277.551 104.043L274.614 104.337L272.965 87.8411L275.598 87.5779L275.995 89.2024C276.504 87.8974 277.374 87.1893 278.605 87.0783C279.441 86.9948 280.151 87.2252 280.736 87.7697C281.321 88.3143 281.676 89.2074 281.8 90.4492L282.577 98.2225C282.701 99.4643 282.525 100.411 282.047 101.061C281.581 101.711 280.937 102.077 280.113 102.159ZM278.47 99.845C279.306 99.7615 279.665 99.1287 279.547 97.9465L278.884 91.3196C278.766 90.1375 278.289 89.5882 277.453 89.6717C276.582 89.7589 276.207 90.4174 276.33 91.6473L276.977 98.113C277.101 99.3548 277.599 99.9322 278.47 99.845ZM291.25 100.865L290.819 99.081C290.367 100.477 289.461 101.243 288.1 101.379C287.3 101.459 286.591 101.246 285.974 100.741C285.357 100.236 284.998 99.482 284.897 98.479L284.735 96.8491C284.54 94.9028 285.39 93.5153 287.285 92.6867L289.974 91.5316L289.775 89.5435C289.741 89.2092 289.613 88.9507 289.39 88.768C289.177 88.5721 288.874 88.4939 288.48 88.5333C288.062 88.5751 287.763 88.7195 287.583 88.9667C287.401 89.2019 287.327 89.4867 287.361 89.821L287.513 91.3434L284.665 91.6281L284.489 89.8729C284.389 88.8699 284.643 88.0305 285.251 87.3547C285.869 86.6657 286.865 86.2526 288.238 86.1153C290.997 85.8396 292.506 87.0033 292.766 89.6063L293.865 100.603L291.25 100.865ZM290.231 93.9298L288.655 94.6301C287.916 94.9572 287.587 95.5208 287.667 96.3208L287.799 97.8271C287.831 98.1495 287.947 98.4032 288.146 98.5883C288.357 98.7603 288.629 98.8295 288.963 98.7961C289.417 98.7508 289.8 98.5376 290.111 98.1568C290.434 97.7627 290.564 97.2553 290.502 96.6344L290.231 93.9298ZM301.38 91.0607C302.359 91.204 303.104 91.5396 303.615 92.0674C304.126 92.5952 304.43 93.3486 304.528 94.3277L304.688 95.9218C304.803 97.08 304.495 98.0394 303.763 98.8C303.042 99.5474 302.037 99.9856 300.747 100.115C299.398 100.249 298.311 100.051 297.486 99.518C296.659 98.9735 296.182 98.0564 296.053 96.7669L295.884 95.0833L298.768 94.795L298.953 96.6398C298.986 96.9741 299.139 97.2362 299.411 97.4261C299.683 97.616 300.016 97.6912 300.41 97.6518C300.84 97.6088 301.17 97.4733 301.401 97.2453C301.642 97.0041 301.747 96.7223 301.714 96.3999L301.566 94.9133C301.506 94.3163 301.078 93.9551 300.282 93.8297L298.172 93.5341C297.279 93.4063 296.602 93.088 296.141 92.5794C295.692 92.0695 295.42 91.3369 295.324 90.3817L295.195 89.0921C295.09 88.0414 295.38 87.1381 296.064 86.3823C296.759 85.6133 297.769 85.1626 299.094 85.0301C300.468 84.8928 301.532 85.106 302.288 85.6696C303.054 86.2201 303.485 86.967 303.579 87.9103L303.744 89.5581L300.878 89.8446L300.749 88.555C300.711 88.1729 300.562 87.8863 300.301 87.6953C300.04 87.4923 299.718 87.4099 299.336 87.4481C298.93 87.4886 298.617 87.6164 298.398 87.8313C298.19 88.045 298.101 88.3012 298.131 88.5997L298.252 89.8176C298.28 90.0922 298.374 90.306 298.534 90.4588C298.706 90.6105 298.988 90.7209 299.381 90.7902L301.38 91.0607ZM312.153 89.9837C313.132 90.127 313.878 90.4626 314.389 90.9904C314.9 91.5182 315.204 92.2716 315.302 93.2507L315.461 94.8448C315.577 96.003 315.269 96.9624 314.537 97.723C313.816 98.4705 312.81 98.9086 311.521 99.0375C310.171 99.1724 309.084 98.9736 308.259 98.441C307.433 97.8965 306.955 96.9794 306.826 95.6899L306.658 94.0063L309.542 93.718L309.726 95.5628C309.76 95.8971 309.912 96.1592 310.185 96.3491C310.457 96.539 310.79 96.6142 311.184 96.5748C311.614 96.5318 311.944 96.3963 312.175 96.1683C312.416 95.9271 312.52 95.6453 312.488 95.3229L312.339 93.8363C312.28 93.2393 311.852 92.8781 311.055 92.7527L308.945 92.4571C308.052 92.3293 307.375 92.011 306.914 91.5024C306.465 90.9925 306.193 90.2599 306.098 89.3047L305.969 88.0151C305.864 86.9644 306.153 86.0611 306.838 85.3053C307.533 84.5363 308.543 84.0856 309.868 83.9531C311.241 83.8159 312.306 84.029 313.062 84.5926C313.828 85.1431 314.259 85.89 314.353 86.8333L314.518 88.4811L311.652 88.7676L311.523 87.478C311.485 87.0959 311.336 86.8093 311.075 86.6183C310.814 86.4153 310.492 86.3329 310.11 86.3711C309.704 86.4117 309.391 86.5394 309.171 86.7543C308.964 86.9681 308.875 87.2242 308.904 87.5227L309.026 88.7406C309.054 89.0152 309.147 89.229 309.307 89.3818C309.479 89.5335 309.762 89.6439 310.155 89.7132L312.153 89.9837ZM316.651 81.1404L319.571 80.8486L319.73 82.4427L316.811 82.7345L316.651 81.1404ZM316.864 83.4527L319.82 83.1573L321.29 97.862L318.334 98.1574L316.864 83.4527ZM323.858 83.7666C324.542 82.8902 325.577 82.3828 326.962 82.2443C328.347 82.1059 329.456 82.399 330.288 83.1239C331.12 83.8487 331.61 84.9454 331.757 86.4141L332.344 92.2888C332.492 93.7694 332.224 94.948 331.54 95.8244C330.867 96.6996 329.839 97.2064 328.454 97.3449C327.068 97.4833 325.96 97.1901 325.128 96.4653C324.295 95.7405 323.805 94.6378 323.657 93.1572L323.07 87.2825C322.923 85.8138 323.186 84.6418 323.858 83.7666ZM329.376 92.8207L328.744 86.4982C328.616 85.2205 328.105 84.6265 327.209 84.716C326.767 84.7602 326.438 84.962 326.221 85.3214C326.014 85.6676 325.942 86.1512 326.004 86.7721L326.618 93.0964C326.68 93.7173 326.847 94.183 327.119 94.4934C327.402 94.7908 327.771 94.9168 328.224 94.8714C329.12 94.7819 329.504 94.0983 329.376 92.8207ZM340 80.941C340.753 80.8778 341.375 81.0688 341.866 81.5142C342.367 81.9465 342.67 82.682 342.774 83.7209L343.961 95.5957L341.024 95.8893L339.912 84.7668C339.832 83.9667 339.428 83.6031 338.699 83.676C338.305 83.7153 337.985 83.892 337.739 84.2061C337.504 84.507 337.413 84.9201 337.465 85.4455L338.534 96.1382L335.597 96.4318L334.127 81.7271L336.76 81.4639L337.18 83.1404C337.417 82.6102 337.785 82.1272 338.284 81.6914C338.782 81.2437 339.354 80.9936 340 80.941ZM352.412 94.7509L351.98 92.967C351.529 94.3628 350.623 95.1287 349.261 95.2648C348.461 95.3448 347.753 95.1322 347.136 94.6271C346.518 94.122 346.159 93.368 346.059 92.365L345.896 90.7351C345.702 88.7888 346.552 87.4013 348.447 86.5727L351.135 85.4176L350.937 83.4295C350.903 83.0952 350.775 82.8366 350.551 82.6539C350.339 82.4581 350.036 82.3799 349.642 82.4193C349.224 82.4611 348.925 82.6055 348.744 82.8527C348.563 83.0879 348.489 83.3727 348.522 83.707L348.674 85.2294L345.827 85.5141L345.651 83.7589C345.551 82.7559 345.805 81.9165 346.412 81.2407C347.031 80.5517 348.027 80.1386 349.4 80.0013C352.158 79.7256 353.667 80.8893 353.928 83.4923L355.027 94.4895L352.412 94.7509ZM351.393 87.8158L349.817 88.5161C349.078 88.8432 348.748 89.4068 348.828 90.2068L348.961 91.7131C348.993 92.0355 349.109 92.2892 349.308 92.4743C349.518 92.6463 349.791 92.7155 350.125 92.6821C350.579 92.6368 350.961 92.4236 351.273 92.0427C351.595 91.6487 351.726 91.1413 351.663 90.5204L351.393 87.8158ZM362.808 81.2659L360.354 81.5112L361.196 89.9292C361.284 90.8128 361.704 91.217 362.457 91.1418L363.854 91.0022L364.112 93.5813L362.124 93.7801C360.965 93.8958 360.065 93.6964 359.423 93.1818C358.792 92.6659 358.426 91.9005 358.325 90.8856L357.417 81.8048L355.608 81.9857L355.37 79.6035C356.349 79.5057 356.974 79.2985 357.243 78.9821C357.513 78.6657 357.692 78.0448 357.781 77.1194L359.948 76.9028L360.17 79.1237L362.57 78.8838L362.808 81.2659ZM368.763 78.0657C371.581 77.784 373.138 79.1298 373.435 82.103L373.792 85.6672L368.204 86.2258L368.472 88.9124C368.6 90.1901 369.141 90.7811 370.097 90.6856C370.968 90.5985 371.355 90.0594 371.255 89.0684L371.06 87.1161L373.908 86.8314L374.128 89.0344C374.236 90.1091 373.949 91.0362 373.267 91.8159C372.584 92.5837 371.615 93.0302 370.362 93.1555C368.905 93.3012 367.762 93.0235 366.932 92.3226C366.101 91.6097 365.614 90.5428 365.472 89.1219L364.885 83.2472C364.732 81.7188 364.991 80.511 365.662 79.6239C366.344 78.7236 367.378 78.2042 368.763 78.0657ZM369.04 80.4801C368.575 80.5267 368.239 80.729 368.034 81.0872C367.839 81.4323 367.769 81.8735 367.822 82.4108L367.974 83.9333L370.661 83.6647L370.509 82.1423C370.389 80.9482 369.9 80.3942 369.04 80.4801ZM73.5076 148.751L74.82 161.88C74.9501 163.181 74.6677 164.216 73.9727 164.985C73.2885 165.741 72.2539 166.188 70.8688 166.327C69.4956 166.464 68.3989 166.23 67.5786 165.624C66.7583 165.019 66.2849 164.083 66.1584 162.818L64.8388 149.618L67.8299 149.319L69.1226 162.25C69.1763 162.787 69.3417 163.175 69.6187 163.413C69.8957 163.65 70.2313 163.749 70.6253 163.71C71.5208 163.62 71.9155 163.044 71.8092 161.982L70.5165 149.05L73.5076 148.751ZM76.8207 148.42L79.8118 148.121L81.5038 165.046L78.5127 165.345L76.8207 148.42ZM87.351 147.277L90.1809 146.994L86.5801 166.348L83.7323 166.633L87.351 147.277ZM100.966 146.006L102.279 159.135C102.409 160.436 102.126 161.471 101.431 162.24C100.747 162.996 99.7126 163.443 98.3275 163.582C96.9543 163.719 95.8576 163.485 95.0373 162.88C94.217 162.274 93.7436 161.339 93.6171 160.073L92.2975 146.873L95.2886 146.574L96.5813 159.505C96.635 160.043 96.8004 160.43 97.0774 160.668C97.3544 160.905 97.6899 161.004 98.084 160.965C98.9795 160.875 99.3742 160.299 99.2679 159.237L97.9752 146.305L100.966 146.006ZM109.281 155.902L109 157.251L108.085 162.389L104.843 162.713L107.234 153.52L103.491 145.754L106.769 145.426L108.415 149.585L108.907 150.712L109.14 150.688L109.382 149.488L110.208 145.082L113.306 144.773L111.16 153.164L115.231 161.675L111.954 162.003L110.073 157.125L109.514 155.879L109.281 155.902ZM122.728 145.875C123.372 145.81 123.913 145.913 124.35 146.183C124.786 146.441 125.205 146.833 125.608 147.36L125.221 143.491L128.158 143.197L129.859 160.213L126.922 160.506L126.755 158.841C126.516 159.467 126.199 159.97 125.802 160.347C125.417 160.711 124.895 160.92 124.237 160.974C123.4 161.045 122.689 160.815 122.106 160.282C121.521 159.738 121.165 158.839 121.04 157.585L120.265 149.829C120.139 148.576 120.31 147.624 120.775 146.975C121.241 146.325 121.892 145.958 122.728 145.875ZM124.354 148.209C123.518 148.292 123.159 148.925 123.277 150.107L123.94 156.734C124.057 157.904 124.533 158.448 125.369 158.364C126.241 158.277 126.615 157.618 126.492 156.389L125.846 149.923C125.723 148.693 125.225 148.122 124.354 148.209ZM135.531 144.595C138.349 144.313 139.906 145.659 140.204 148.632L140.56 152.196L134.972 152.755L135.24 155.442C135.368 156.719 135.91 157.31 136.865 157.215C137.737 157.128 138.123 156.589 138.024 155.598L137.829 153.645L140.676 153.361L140.897 155.564C141.004 156.638 140.717 157.565 140.035 158.345C139.352 159.113 138.384 159.559 137.13 159.685C135.673 159.83 134.53 159.553 133.7 158.852C132.869 158.139 132.382 157.072 132.24 155.651L131.653 149.776C131.5 148.248 131.759 147.04 132.431 146.153C133.112 145.253 134.146 144.733 135.531 144.595ZM135.808 147.009C135.343 147.056 135.007 147.258 134.802 147.617C134.607 147.962 134.537 148.403 134.59 148.94L134.743 150.463L137.429 150.194L137.277 148.672C137.158 147.477 136.668 146.923 135.808 147.009ZM148.653 149.542C149.632 149.686 150.377 150.021 150.888 150.549C151.399 151.077 151.704 151.83 151.802 152.809L151.961 154.403C152.077 155.562 151.769 156.521 151.037 157.282C150.316 158.029 149.31 158.467 148.021 158.596C146.671 158.731 145.584 158.532 144.759 158C143.933 157.455 143.455 156.538 143.326 155.248L143.158 153.565L146.042 153.277L146.226 155.121C146.259 155.456 146.412 155.718 146.685 155.908C146.957 156.098 147.29 156.173 147.684 156.133C148.114 156.09 148.444 155.955 148.674 155.727C148.916 155.486 149.02 155.204 148.988 154.881L148.839 153.395C148.78 152.798 148.352 152.437 147.555 152.311L145.445 152.016C144.552 151.888 143.875 151.57 143.414 151.061C142.965 150.551 142.693 149.819 142.598 148.863L142.469 147.574C142.364 146.523 142.653 145.62 143.337 144.864C144.032 144.095 145.043 143.644 146.368 143.512C147.741 143.374 148.806 143.588 149.561 144.151C150.328 144.702 150.758 145.449 150.853 146.392L151.017 148.04L148.152 148.326L148.023 147.037C147.985 146.654 147.835 146.368 147.575 146.177C147.314 145.974 146.992 145.891 146.61 145.93C146.204 145.97 145.891 146.098 145.671 146.313C145.463 146.527 145.374 146.783 145.404 147.081L145.526 148.299C145.553 148.574 145.647 148.788 145.807 148.94C145.979 149.092 146.261 149.203 146.654 149.272L148.653 149.542ZM153.151 140.699L156.071 140.407L156.23 142.001L153.311 142.293L153.151 140.699ZM153.364 143.011L156.32 142.716L157.789 157.421L154.834 157.716L153.364 143.011ZM164.966 141.833L167.599 141.57L168.903 154.609C169.032 155.899 168.791 156.87 168.181 157.521C167.571 158.173 166.722 158.554 165.636 158.662L161.677 159.058L161.436 156.64L164.606 156.323C165.107 156.273 165.473 156.128 165.702 155.888C165.93 155.636 166.018 155.253 165.967 154.74L165.831 153.379C165.552 154.082 165.22 154.622 164.835 154.998C164.463 155.373 163.947 155.587 163.289 155.641C162.454 155.724 161.744 155.506 161.162 154.985C160.578 154.453 160.226 153.589 160.107 152.395L159.446 145.786C159.327 144.592 159.501 143.676 159.967 143.039C160.434 142.401 161.086 142.04 161.922 141.957C162.566 141.892 163.115 142.012 163.568 142.317C164.019 142.609 164.441 143.032 164.834 143.583L164.966 141.833ZM163.548 144.291C163.166 144.329 162.876 144.503 162.677 144.812C162.478 145.109 162.406 145.538 162.462 146.1L162.991 151.383C163.109 152.565 163.586 153.115 164.422 153.031C165.305 152.943 165.685 152.284 165.562 151.054L165.058 146.003C164.935 144.773 164.431 144.202 163.548 144.291ZM176.552 140.494C177.305 140.431 177.927 140.622 178.418 141.068C178.92 141.5 179.222 142.235 179.326 143.274L180.513 155.149L177.576 155.443L176.464 144.32C176.384 143.52 175.98 143.156 175.251 143.229C174.857 143.269 174.537 143.445 174.291 143.759C174.056 144.06 173.965 144.473 174.017 144.999L175.086 155.692L172.149 155.985L170.679 141.28L173.312 141.017L173.733 142.694C173.969 142.164 174.337 141.681 174.836 141.245C175.334 140.797 175.906 140.547 176.552 140.494ZM186.024 139.547C188.842 139.266 190.399 140.612 190.697 143.585L191.053 147.149L185.465 147.708L185.733 150.394C185.861 151.672 186.402 152.263 187.358 152.167C188.229 152.08 188.616 151.541 188.517 150.55L188.321 148.598L191.169 148.313L191.389 150.516C191.497 151.591 191.21 152.518 190.528 153.298C189.845 154.065 188.876 154.512 187.623 154.637C186.166 154.783 185.023 154.505 184.193 153.804C183.362 153.091 182.875 152.025 182.733 150.604L182.146 144.729C181.993 143.201 182.252 141.993 182.923 141.106C183.605 140.205 184.639 139.686 186.024 139.547ZM186.301 141.962C185.836 142.008 185.5 142.211 185.295 142.569C185.1 142.914 185.03 143.355 185.083 143.893L185.236 145.415L187.922 145.146L187.77 143.624C187.651 142.43 187.161 141.876 186.301 141.962ZM198.869 138.282C199.597 138.209 200.202 138.414 200.685 138.896C201.178 139.365 201.481 140.167 201.594 141.301L202.11 146.46L199.173 146.753L198.729 142.311C198.679 141.81 198.571 141.459 198.406 141.258C198.252 141.045 197.99 140.956 197.62 140.993C197.25 141.03 196.945 141.242 196.707 141.627C196.479 142 196.396 142.502 196.459 143.135L197.491 153.452L194.553 153.745L193.083 139.041L195.716 138.778L196.067 140.479C196.434 139.803 196.811 139.289 197.197 138.937C197.595 138.572 198.152 138.353 198.869 138.282ZM212.288 136.108C211.882 136.149 211.696 136.336 211.729 136.67L211.779 137.172L214.376 136.912L214.614 139.294L212.017 139.554L213.247 151.859L210.312 152.17L209.08 139.848L207.271 140.028L207.033 137.646L208.842 137.465L208.785 136.892C208.669 135.734 209.393 135.077 210.957 134.92L214.145 134.602L214.276 135.909L212.288 136.108ZM217.077 137.655C217.761 136.779 218.796 136.271 220.181 136.133C221.566 135.995 222.675 136.288 223.507 137.013C224.339 137.737 224.829 138.834 224.975 140.303L225.563 146.177C225.711 147.658 225.443 148.837 224.758 149.713C224.086 150.588 223.057 151.095 221.672 151.234C220.287 151.372 219.179 151.079 218.346 150.354C217.514 149.629 217.024 148.526 216.876 147.046L216.289 141.171C216.142 139.702 216.405 138.531 217.077 137.655ZM222.595 146.709L221.963 140.387C221.835 139.109 221.323 138.515 220.428 138.605C219.986 138.649 219.657 138.851 219.439 139.21C219.233 139.556 219.16 140.04 219.222 140.661L219.837 146.985C219.899 147.606 220.066 148.072 220.338 148.382C220.621 148.679 220.989 148.805 221.443 148.76C222.339 148.671 222.723 147.987 222.595 146.709ZM236.469 142.916L236.741 145.639C236.869 146.917 236.622 147.948 236.001 148.734C235.379 149.508 234.375 149.964 232.99 150.102C231.569 150.244 230.437 149.959 229.594 149.248C228.752 148.536 228.26 147.476 228.119 146.067L227.531 140.192C227.378 138.652 227.642 137.437 228.325 136.549C229.008 135.661 230.06 135.145 231.481 135.003C232.866 134.865 233.94 135.107 234.701 135.731C235.463 136.354 235.908 137.304 236.036 138.582L236.27 140.928L233.404 141.215L233.209 139.263C233.081 137.985 232.576 137.39 231.692 137.479C230.761 137.572 230.359 138.257 230.487 139.535L231.119 145.857C231.247 147.135 231.776 147.727 232.707 147.634C233.591 147.546 233.969 146.863 233.841 145.585L233.603 143.203L236.469 142.916ZM243.7 133.981L246.637 133.687L248.107 148.392L245.492 148.653L245.053 146.979C244.828 147.496 244.46 147.979 243.95 148.428C243.451 148.863 242.878 149.108 242.232 149.16C241.48 149.235 240.852 149.045 240.348 148.589C239.856 148.131 239.555 147.353 239.445 146.255L238.273 134.523L241.21 134.23L242.322 145.352C242.402 146.152 242.806 146.516 243.534 146.443C243.929 146.404 244.243 146.228 244.477 145.915C244.723 145.601 244.819 145.181 244.767 144.656L243.7 133.981ZM255.777 138.834C256.757 138.977 257.502 139.313 258.013 139.84C258.524 140.368 258.828 141.122 258.926 142.101L259.085 143.695C259.201 144.853 258.893 145.812 258.161 146.573C257.44 147.32 256.434 147.759 255.145 147.887C253.796 148.022 252.708 147.823 251.883 147.291C251.057 146.746 250.58 145.829 250.451 144.54L250.282 142.856L253.166 142.568L253.35 144.413C253.384 144.747 253.537 145.009 253.809 145.199C254.081 145.389 254.414 145.464 254.808 145.425C255.238 145.382 255.568 145.246 255.799 145.018C256.04 144.777 256.144 144.495 256.112 144.173L255.964 142.686C255.904 142.089 255.476 141.728 254.679 141.603L252.57 141.307C251.676 141.179 250.999 140.861 250.539 140.352C250.09 139.842 249.817 139.11 249.722 138.155L249.593 136.865C249.488 135.814 249.778 134.911 250.462 134.155C251.157 133.386 252.167 132.936 253.492 132.803C254.865 132.666 255.93 132.879 256.686 133.443C257.452 133.993 257.883 134.74 257.977 135.683L258.142 137.331L255.276 137.617L255.147 136.328C255.109 135.946 254.96 135.659 254.699 135.468C254.438 135.265 254.116 135.183 253.734 135.221C253.328 135.262 253.015 135.389 252.795 135.604C252.588 135.818 252.499 136.074 252.529 136.373L252.65 137.591C252.678 137.865 252.772 138.079 252.931 138.232C253.103 138.383 253.386 138.494 253.779 138.563L255.777 138.834ZM264.553 131.697C267.371 131.416 268.928 132.761 269.225 135.735L269.582 139.299L263.993 139.857L264.262 142.544C264.39 143.822 264.931 144.413 265.886 144.317C266.758 144.23 267.144 143.691 267.045 142.7L266.85 140.748L269.698 140.463L269.918 142.666C270.026 143.741 269.738 144.668 269.057 145.448C268.374 146.215 267.405 146.662 266.151 146.787C264.695 146.933 263.551 146.655 262.722 145.954C261.891 145.241 261.404 144.174 261.262 142.754L260.675 136.879C260.522 135.35 260.781 134.143 261.452 133.256C262.134 132.355 263.167 131.836 264.553 131.697ZM264.83 134.112C264.364 134.158 264.029 134.361 263.824 134.719C263.629 135.064 263.558 135.505 263.612 136.042L263.764 137.565L266.451 137.296L266.299 135.774C266.179 134.58 265.69 134.026 264.83 134.112ZM274.154 130.738C274.798 130.673 275.339 130.776 275.776 131.046C276.212 131.304 276.631 131.696 277.034 132.223L276.647 128.354L279.584 128.06L281.285 145.075L278.348 145.369L278.181 143.703C277.943 144.33 277.625 144.832 277.228 145.21C276.843 145.574 276.321 145.783 275.663 145.836C274.826 145.908 274.116 145.678 273.532 145.145C272.947 144.6 272.591 143.701 272.466 142.448L271.691 134.692C271.566 133.438 271.736 132.487 272.201 131.837C272.667 131.188 273.318 130.821 274.154 130.738ZM275.78 133.071C274.944 133.155 274.585 133.788 274.703 134.97L275.366 141.597C275.483 142.767 275.959 143.31 276.795 143.227C277.667 143.14 278.041 142.481 277.918 141.251L277.272 134.786C277.149 133.556 276.652 132.984 275.78 133.071ZM288.12 130.553C288.804 129.677 289.839 129.17 291.224 129.031C292.609 128.893 293.718 129.186 294.55 129.911C295.382 130.636 295.872 131.732 296.019 133.201L296.606 139.076C296.754 140.556 296.486 141.735 295.802 142.611C295.129 143.486 294.101 143.993 292.716 144.132C291.331 144.27 290.222 143.977 289.39 143.252C288.557 142.527 288.067 141.425 287.919 139.944L287.332 134.069C287.185 132.601 287.448 131.429 288.12 130.553ZM293.638 139.608L293.006 133.285C292.878 132.007 292.367 131.413 291.471 131.503C291.029 131.547 290.7 131.749 290.483 132.108C290.276 132.454 290.204 132.938 290.266 133.559L290.88 139.883C290.942 140.504 291.109 140.97 291.381 141.28C291.664 141.578 292.033 141.704 292.486 141.658C293.382 141.569 293.766 140.885 293.638 139.608ZM304.262 127.728C305.015 127.665 305.637 127.856 306.128 128.301C306.629 128.733 306.932 129.469 307.036 130.508L308.223 142.383L305.286 142.676L304.174 131.554C304.094 130.754 303.69 130.39 302.961 130.463C302.567 130.502 302.247 130.679 302.001 130.993C301.766 131.294 301.675 131.707 301.727 132.232L302.796 142.925L299.859 143.219L298.389 128.514L301.022 128.251L301.442 129.927C301.679 129.397 302.047 128.914 302.546 128.478C303.044 128.031 303.616 127.78 304.262 127.728ZM323.06 134.26L323.332 136.983C323.46 138.26 323.213 139.292 322.593 140.078C321.97 140.851 320.967 141.308 319.582 141.446C318.161 141.588 317.029 141.303 316.186 140.592C315.343 139.88 314.851 138.82 314.71 137.411L314.123 131.536C313.969 129.996 314.233 128.781 314.916 127.893C315.599 127.005 316.651 126.489 318.072 126.347C319.457 126.209 320.531 126.451 321.293 127.075C322.054 127.698 322.499 128.648 322.627 129.926L322.861 132.272L319.996 132.559L319.801 130.607C319.673 129.329 319.167 128.734 318.284 128.823C317.352 128.916 316.95 129.601 317.078 130.879L317.71 137.201C317.838 138.479 318.367 139.071 319.299 138.978C320.182 138.89 320.56 138.207 320.433 136.929L320.194 134.547L323.06 134.26ZM330.811 125.092C331.539 125.019 332.144 125.224 332.627 125.706C333.12 126.176 333.423 126.978 333.536 128.112L334.052 133.27L331.115 133.564L330.671 129.122C330.621 128.62 330.513 128.269 330.348 128.069C330.194 127.855 329.932 127.767 329.562 127.804C329.192 127.841 328.887 128.052 328.649 128.438C328.42 128.81 328.338 129.313 328.401 129.946L329.433 140.262L326.495 140.556L325.025 125.851L327.658 125.588L328.009 127.29C328.376 126.614 328.753 126.1 329.139 125.747C329.537 125.382 330.094 125.164 330.811 125.092ZM339.741 124.181C342.559 123.9 344.116 125.245 344.413 128.218L344.77 131.783L339.181 132.341L339.45 135.028C339.578 136.306 340.119 136.897 341.074 136.801C341.946 136.714 342.332 136.175 342.233 135.184L342.038 133.232L344.886 132.947L345.106 135.15C345.214 136.225 344.926 137.152 344.245 137.931C343.562 138.699 342.593 139.146 341.339 139.271C339.883 139.417 338.739 139.139 337.91 138.438C337.079 137.725 336.592 136.658 336.45 135.237L335.863 129.363C335.71 127.834 335.969 126.627 336.64 125.739C337.322 124.839 338.355 124.32 339.741 124.181ZM340.018 126.596C339.552 126.642 339.217 126.845 339.012 127.203C338.817 127.548 338.746 127.989 338.8 128.526L338.952 130.049L341.639 129.78L341.487 128.258C341.367 127.064 340.878 126.51 340.018 126.596ZM353.805 137.826L353.373 136.042C352.922 137.438 352.015 138.204 350.654 138.34C349.854 138.42 349.145 138.207 348.528 137.702C347.911 137.197 347.552 136.443 347.452 135.44L347.289 133.81C347.094 131.864 347.944 130.476 349.839 129.648L352.528 128.493L352.329 126.505C352.296 126.17 352.167 125.912 351.944 125.729C351.732 125.533 351.428 125.455 351.034 125.494C350.616 125.536 350.317 125.681 350.137 125.928C349.955 126.163 349.881 126.448 349.915 126.782L350.067 128.305L347.219 128.589L347.044 126.834C346.943 125.831 347.197 124.992 347.805 124.316C348.423 123.627 349.419 123.214 350.792 123.076C353.551 122.801 355.06 123.964 355.32 126.567L356.42 137.565L353.805 137.826ZM352.786 130.891L351.21 131.591C350.47 131.918 350.141 132.482 350.221 133.282L350.353 134.788C350.385 135.111 350.501 135.364 350.701 135.549C350.911 135.721 351.183 135.791 351.517 135.757C351.971 135.712 352.354 135.499 352.666 135.118C352.988 134.724 353.118 134.216 353.056 133.595L352.786 130.891ZM364.201 124.341L361.747 124.586L362.588 133.004C362.677 133.888 363.097 134.292 363.849 134.217L365.246 134.077L365.504 136.656L363.516 136.855C362.358 136.971 361.458 136.772 360.815 136.257C360.185 135.741 359.819 134.976 359.717 133.961L358.81 124.88L357.001 125.061L356.762 122.679C357.742 122.581 358.366 122.374 358.636 122.057C358.906 121.741 359.085 121.12 359.173 120.195L361.341 119.978L361.563 122.199L363.963 121.959L364.201 124.341ZM366.018 119.42L368.938 119.128L369.097 120.722L366.178 121.014L366.018 119.42ZM366.231 121.732L369.186 121.437L370.656 136.141L367.701 136.437L366.231 121.732ZM378.138 120.343C378.891 120.28 379.513 120.471 380.004 120.916C380.506 121.348 380.808 122.084 380.912 123.123L382.099 134.998L379.162 135.291L378.05 124.169C377.97 123.369 377.566 123.005 376.837 123.078C376.443 123.117 376.123 123.294 375.877 123.608C375.642 123.909 375.551 124.322 375.603 124.847L376.672 135.54L373.735 135.834L372.265 121.129L374.898 120.866L375.319 122.542C375.555 122.012 375.923 121.529 376.422 121.093C376.92 120.646 377.492 120.395 378.138 120.343ZM389.114 119.427L391.747 119.163L393.051 132.202C393.18 133.492 392.939 134.463 392.329 135.115C391.719 135.767 390.87 136.147 389.784 136.255L385.825 136.651L385.584 134.233L388.754 133.916C389.255 133.866 389.621 133.721 389.85 133.481C390.078 133.229 390.166 132.846 390.115 132.333L389.979 130.972C389.7 131.675 389.368 132.215 388.983 132.591C388.611 132.966 388.095 133.18 387.437 133.234C386.602 133.317 385.892 133.099 385.31 132.578C384.726 132.046 384.374 131.182 384.255 129.988L383.594 123.379C383.475 122.185 383.649 121.269 384.115 120.632C384.582 119.994 385.234 119.634 386.069 119.55C386.714 119.486 387.263 119.606 387.715 119.91C388.167 120.203 388.589 120.625 388.982 121.176L389.114 119.427ZM387.696 121.884C387.314 121.922 387.023 122.096 386.825 122.405C386.626 122.702 386.554 123.132 386.61 123.693L387.138 128.976C387.257 130.159 387.734 130.708 388.569 130.624C389.453 130.536 389.833 129.877 389.71 128.647L389.206 123.596C389.083 122.366 388.579 121.795 387.696 121.884ZM69.0354 192.322L71.9549 192.03L72.1142 193.624L69.1948 193.916L69.0354 192.322ZM69.2485 194.634L72.2037 194.339L73.6737 209.044L70.7184 209.339L69.2485 194.634ZM81.1551 193.245C81.9085 193.182 82.5306 193.373 83.0214 193.818C83.5228 194.25 83.8255 194.986 83.9293 196.025L85.1164 207.9L82.1791 208.193L81.0672 197.071C80.9872 196.271 80.583 195.907 79.8547 195.98C79.4606 196.019 79.1406 196.196 78.8946 196.51C78.6594 196.811 78.568 197.224 78.6206 197.749L79.6895 208.442L76.7521 208.736L75.2821 194.031L77.915 193.768L78.3359 195.444C78.5723 194.914 78.9401 194.431 79.4392 193.995C79.9371 193.548 80.5091 193.298 81.1551 193.245ZM92.8926 194.677L90.4388 194.922L91.2803 203.34C91.3686 204.224 91.7889 204.628 92.5412 204.553L93.9382 204.413L94.196 206.992L92.2079 207.191C91.0497 207.307 90.1494 207.107 89.507 206.592C88.8766 206.077 88.5106 205.311 88.4092 204.296L87.5014 195.215L85.6925 195.396L85.4543 193.014C86.4334 192.916 87.0579 192.709 87.3278 192.393C87.5977 192.076 87.7768 191.455 87.8652 190.53L90.0324 190.313L90.2544 192.534L92.6544 192.294L92.8926 194.677ZM100.189 191.541L103.126 191.248L104.596 205.952L101.981 206.214L101.542 204.539C101.317 205.056 100.949 205.539 100.439 205.988C99.94 206.424 99.3674 206.668 98.7214 206.721C97.9692 206.796 97.3411 206.605 96.8372 206.149C96.3453 205.692 96.0444 204.914 95.9346 203.815L94.7619 192.084L97.6992 191.79L98.8111 202.913C98.8911 203.713 99.2953 204.076 100.024 204.004C100.418 203.964 100.732 203.788 100.966 203.475C101.212 203.161 101.308 202.741 101.256 202.216L100.189 191.541ZM105.991 188.628L108.91 188.336L109.07 189.93L106.15 190.222L105.991 188.628ZM106.204 190.94L109.159 190.645L110.629 205.349L107.674 205.645L106.204 190.94ZM118.637 192.103L116.183 192.348L117.025 200.766C117.113 201.65 117.533 202.054 118.286 201.979L119.683 201.839L119.941 204.418L117.953 204.617C116.794 204.733 115.894 204.534 115.252 204.019C114.621 203.503 114.255 202.738 114.154 201.723L113.246 192.642L111.437 192.823L111.199 190.441C112.178 190.343 112.803 190.136 113.072 189.819C113.342 189.503 113.521 188.882 113.61 187.957L115.777 187.74L115.999 189.961L118.399 189.721L118.637 192.103ZM120.455 187.182L123.374 186.89L123.533 188.484L120.614 188.776L120.455 187.182ZM120.668 189.494L123.623 189.199L125.093 203.903L122.138 204.199L120.668 189.494ZM131.834 199.34L131.915 196.347L132.284 188.279L135.347 187.972L133.849 203.028L130.41 203.372L125.926 188.914L128.989 188.608L130.957 196.353L131.655 199.358L131.834 199.34ZM141.504 187.212C144.322 186.931 145.88 188.276 146.177 191.249L146.533 194.814L140.945 195.372L141.214 198.059C141.341 199.337 141.883 199.928 142.838 199.832C143.71 199.745 144.096 199.206 143.997 198.215L143.802 196.263L146.649 195.978L146.87 198.181C146.977 199.256 146.69 200.183 146.008 200.962C145.325 201.73 144.357 202.177 143.103 202.302C141.646 202.448 140.503 202.17 139.673 201.469C138.842 200.756 138.356 199.689 138.213 198.268L137.626 192.394C137.473 190.865 137.733 189.657 138.404 188.77C139.085 187.87 140.119 187.351 141.504 187.212ZM141.782 189.627C141.316 189.673 140.98 189.876 140.775 190.234C140.58 190.579 140.51 191.02 140.564 191.557L140.716 193.08L143.402 192.811L143.25 191.289C143.131 190.095 142.641 189.541 141.782 189.627ZM149.971 198.07L152.98 197.769L153.335 201.315C153.386 201.829 153.254 202.264 152.94 202.621C152.628 202.99 152.143 203.207 151.486 203.273L150.501 203.371L150.401 202.368L150.956 202.313C151.529 202.256 151.787 201.94 151.73 201.367L151.717 201.242L150.302 201.383L149.971 198.07ZM164.725 185.09L167.662 184.796L169.132 199.501L166.517 199.762L166.078 198.088C165.853 198.605 165.485 199.088 164.975 199.537C164.476 199.973 163.903 200.217 163.257 200.269C162.505 200.344 161.877 200.154 161.373 199.698C160.881 199.24 160.58 198.463 160.471 197.364L159.298 185.632L162.235 185.339L163.347 196.461C163.427 197.261 163.831 197.625 164.56 197.552C164.954 197.513 165.268 197.337 165.502 197.024C165.748 196.71 165.844 196.29 165.792 195.765L164.725 185.09ZM176.803 189.943C177.782 190.086 178.527 190.422 179.038 190.949C179.549 191.477 179.853 192.231 179.951 193.21L180.111 194.804C180.226 195.962 179.918 196.921 179.186 197.682C178.465 198.429 177.46 198.868 176.17 198.996C174.821 199.131 173.734 198.933 172.909 198.4C172.082 197.855 171.605 196.938 171.476 195.649L171.307 193.965L174.191 193.677L174.376 195.522C174.409 195.856 174.562 196.118 174.834 196.308C175.106 196.498 175.439 196.573 175.833 196.534C176.263 196.491 176.593 196.355 176.824 196.127C177.065 195.886 177.17 195.604 177.137 195.282L176.989 193.795C176.929 193.198 176.501 192.837 175.705 192.712L173.595 192.416C172.702 192.288 172.025 191.97 171.564 191.461C171.115 190.951 170.843 190.219 170.747 189.264L170.618 187.974C170.513 186.923 170.803 186.02 171.487 185.264C172.182 184.495 173.192 184.045 174.517 183.912C175.891 183.775 176.955 183.988 177.711 184.552C178.477 185.102 178.908 185.849 179.002 186.792L179.167 188.44L176.301 188.726L176.172 187.437C176.134 187.055 175.985 186.768 175.725 186.577C175.463 186.374 175.141 186.292 174.759 186.33C174.353 186.371 174.04 186.498 173.821 186.713C173.613 186.927 173.524 187.183 173.554 187.482L173.675 188.7C173.703 188.974 173.797 189.188 173.957 189.341C174.129 189.492 174.411 189.603 174.804 189.672L176.803 189.943ZM185.578 182.806C188.396 182.525 189.953 183.87 190.25 186.844L190.607 190.408L185.019 190.966L185.287 193.653C185.415 194.931 185.956 195.522 186.912 195.426C187.783 195.339 188.17 194.8 188.071 193.809L187.875 191.857L190.723 191.572L190.943 193.775C191.051 194.85 190.764 195.777 190.082 196.557C189.399 197.324 188.43 197.771 187.177 197.896C185.72 198.042 184.577 197.764 183.747 197.063C182.916 196.35 182.429 195.283 182.287 193.863L181.7 187.988C181.547 186.459 181.806 185.252 182.477 184.365C183.159 183.464 184.193 182.945 185.578 182.806ZM185.855 185.221C185.39 185.267 185.054 185.47 184.849 185.828C184.654 186.173 184.584 186.614 184.637 187.152L184.789 188.674L187.476 188.405L187.324 186.883C187.205 185.689 186.715 185.135 185.855 185.221ZM198.422 181.54C199.151 181.468 199.756 181.672 200.239 182.155C200.732 182.624 201.035 183.426 201.148 184.56L201.664 189.719L198.727 190.012L198.283 185.57C198.233 185.069 198.125 184.718 197.96 184.517C197.806 184.303 197.544 184.215 197.174 184.252C196.804 184.289 196.499 184.5 196.261 184.886C196.032 185.259 195.95 185.761 196.013 186.394L197.045 196.711L194.107 197.004L192.637 182.3L195.27 182.036L195.621 183.738C195.988 183.062 196.365 182.548 196.751 182.196C197.149 181.831 197.706 181.612 198.422 181.54ZM209.221 185.761L209.464 188.197L203.088 188.835L202.844 186.399L209.221 185.761ZM214.99 179.052C214.584 179.093 214.398 179.28 214.431 179.615L214.482 180.116L217.079 179.856L217.317 182.239L214.72 182.498L215.95 194.803L213.014 195.114L211.782 182.792L209.973 182.973L209.735 180.59L211.544 180.41L211.487 179.837C211.371 178.678 212.095 178.021 213.66 177.865L216.848 177.546L216.978 178.853L214.99 179.052ZM224.814 178.902C225.543 178.829 226.148 179.034 226.63 179.517C227.123 179.986 227.427 180.788 227.54 181.922L228.056 187.08L225.118 187.374L224.674 182.932C224.624 182.431 224.517 182.08 224.352 181.879C224.198 181.665 223.936 181.577 223.566 181.614C223.196 181.651 222.891 181.862 222.652 182.248C222.424 182.62 222.342 183.123 222.405 183.756L223.436 194.073L220.499 194.366L219.029 179.661L221.662 179.398L222.013 181.1C222.38 180.424 222.756 179.91 223.143 179.558C223.541 179.192 224.098 178.974 224.814 178.902ZM229.537 176.277L232.457 175.986L232.616 177.58L229.697 177.871L229.537 176.277ZM229.75 178.59L232.706 178.294L234.176 192.999L231.22 193.294L229.75 178.59ZM239.848 177.381C242.666 177.1 244.223 178.445 244.521 181.419L244.877 184.983L239.289 185.541L239.557 188.228C239.685 189.506 240.227 190.097 241.182 190.001C242.054 189.914 242.44 189.375 242.341 188.384L242.146 186.432L244.993 186.147L245.214 188.35C245.321 189.425 245.034 190.352 244.352 191.131C243.669 191.899 242.701 192.346 241.447 192.471C239.99 192.617 238.847 192.339 238.017 191.638C237.186 190.925 236.699 189.858 236.557 188.437L235.97 182.563C235.817 181.034 236.076 179.827 236.748 178.939C237.429 178.039 238.463 177.52 239.848 177.381ZM240.125 179.796C239.66 179.842 239.324 180.045 239.119 180.403C238.924 180.748 238.854 181.189 238.907 181.726L239.06 183.249L241.746 182.98L241.594 181.458C241.475 180.264 240.985 179.71 240.125 179.796ZM252.78 176.089C253.534 176.025 254.156 176.216 254.647 176.662C255.148 177.094 255.451 177.83 255.555 178.868L256.742 190.743L253.804 191.037L252.693 179.914C252.613 179.114 252.208 178.751 251.48 178.823C251.086 178.863 250.766 179.04 250.52 179.354C250.285 179.654 250.193 180.068 250.246 180.593L251.315 191.286L248.377 191.579L246.908 176.875L249.54 176.611L249.961 178.288C250.198 177.758 250.565 177.275 251.065 176.839C251.563 176.391 252.134 176.141 252.78 176.089ZM260.73 175.294C261.375 175.229 261.916 175.332 262.353 175.602C262.789 175.86 263.208 176.252 263.61 176.779L263.223 172.91L266.161 172.616L267.862 189.632L264.924 189.925L264.758 188.26C264.519 188.886 264.201 189.388 263.805 189.766C263.419 190.13 262.897 190.339 262.239 190.393C261.402 190.464 260.692 190.234 260.108 189.701C259.523 189.157 259.168 188.258 259.042 187.004L258.267 179.248C258.142 177.995 258.312 177.043 258.778 176.393C259.243 175.744 259.894 175.377 260.73 175.294ZM262.356 177.628C261.52 177.711 261.162 178.344 261.28 179.526L261.942 186.153C262.059 187.323 262.536 187.867 263.371 187.783C264.243 187.696 264.617 187.037 264.494 185.808L263.848 179.342C263.725 178.112 263.228 177.541 262.356 177.628ZM269.238 172.309L272.194 172.013L273.895 189.028L270.939 189.324L269.238 172.309ZM280.525 183.355L280.704 179.9L280.93 173.474L284.011 173.166L282.697 186.629C282.511 187.902 282.099 188.847 281.461 189.466C280.836 190.083 280.081 190.436 279.198 190.524L276.6 190.784L276.359 188.366L277.953 188.207C278.49 188.153 278.864 187.917 279.076 187.498L274.733 174.093L277.796 173.787L279.433 180.027L280.31 183.376L280.525 183.355ZM294.678 171.9C297.496 171.619 299.053 172.964 299.351 175.937L299.707 179.502L294.119 180.06L294.387 182.747C294.515 184.025 295.057 184.616 296.012 184.52C296.883 184.433 297.27 183.894 297.171 182.903L296.975 180.951L299.823 180.666L300.044 182.869C300.151 183.944 299.864 184.871 299.182 185.65C298.499 186.418 297.531 186.865 296.277 186.99C294.82 187.136 293.677 186.858 292.847 186.157C292.016 185.444 291.529 184.377 291.387 182.956L290.8 177.082C290.647 175.553 290.906 174.346 291.577 173.458C292.259 172.558 293.293 172.039 294.678 171.9ZM294.955 174.315C294.49 174.361 294.154 174.564 293.949 174.922C293.754 175.267 293.684 175.708 293.737 176.245L293.89 177.768L296.576 177.499L296.424 175.977C296.305 174.783 295.815 174.229 294.955 174.315ZM306.007 180.844L305.794 181.788L304.907 185.946L301.826 186.254L304.114 178.374L300.586 171.491L303.738 171.175L305.182 174.577L305.604 175.547L305.783 175.53L305.988 174.496L306.747 170.875L309.72 170.577L307.617 177.77L311.425 185.277L308.273 185.592L306.582 181.709L306.186 180.826L306.007 180.844ZM319.414 184.659C318.757 184.725 318.211 184.629 317.775 184.371C317.338 184.101 316.918 183.703 316.516 183.176L316.853 186.543L313.915 186.837L312.266 170.341L314.899 170.078L315.297 171.702C315.805 170.397 316.675 169.689 317.906 169.578C318.742 169.495 319.453 169.725 320.038 170.27C320.623 170.814 320.977 171.707 321.102 172.949L321.879 180.722C322.003 181.964 321.826 182.91 321.348 183.561C320.883 184.211 320.238 184.577 319.414 184.659ZM317.772 182.345C318.607 182.261 318.966 181.629 318.848 180.446L318.186 173.819C318.068 172.637 317.591 172.088 316.755 172.172C315.883 172.259 315.509 172.917 315.632 174.147L316.278 180.613C316.402 181.855 316.9 182.432 317.772 182.345ZM327.611 168.608C330.429 168.326 331.987 169.672 332.284 172.645L332.64 176.21L327.052 176.768L327.321 179.455C327.448 180.732 327.99 181.323 328.945 181.228C329.817 181.141 330.203 180.602 330.104 179.611L329.909 177.658L332.757 177.374L332.977 179.577C333.084 180.651 332.797 181.579 332.115 182.358C331.432 183.126 330.464 183.573 329.21 183.698C327.753 183.843 326.61 183.566 325.78 182.865C324.949 182.152 324.463 181.085 324.321 179.664L323.733 173.789C323.581 172.261 323.84 171.053 324.511 170.166C325.193 169.266 326.226 168.747 327.611 168.608ZM327.889 171.022C327.423 171.069 327.088 171.271 326.882 171.63C326.688 171.975 326.617 172.416 326.671 172.953L326.823 174.476L329.51 174.207L329.357 172.685C329.238 171.491 328.748 170.936 327.889 171.022ZM340.456 167.342C341.184 167.269 341.79 167.474 342.272 167.957C342.765 168.426 343.069 169.228 343.182 170.362L343.698 175.52L340.76 175.814L340.316 171.372C340.266 170.871 340.159 170.519 339.994 170.319C339.84 170.105 339.578 170.017 339.208 170.054C338.837 170.091 338.533 170.302 338.294 170.688C338.066 171.06 337.984 171.563 338.047 172.196L339.078 182.512L336.141 182.806L334.671 168.101L337.304 167.838L337.655 169.54C338.021 168.864 338.398 168.35 338.785 167.998C339.183 167.632 339.74 167.414 340.456 167.342ZM345.179 164.717L348.098 164.425L348.258 166.02L345.338 166.311L345.179 164.717ZM345.392 167.03L348.347 166.734L349.817 181.439L346.862 181.734L345.392 167.03ZM355.49 165.821C358.308 165.54 359.865 166.885 360.162 169.858L360.519 173.423L354.931 173.981L355.199 176.668C355.327 177.946 355.868 178.537 356.824 178.441C357.695 178.354 358.082 177.815 357.982 176.824L357.787 174.872L360.635 174.587L360.855 176.79C360.963 177.865 360.676 178.792 359.994 179.571C359.311 180.339 358.342 180.786 357.089 180.911C355.632 181.057 354.489 180.779 353.659 180.078C352.828 179.365 352.341 178.298 352.199 176.877L351.612 171.003C351.459 169.474 351.718 168.266 352.389 167.379C353.071 166.479 354.105 165.96 355.49 165.821ZM355.767 168.236C355.302 168.282 354.966 168.484 354.761 168.843C354.566 169.188 354.496 169.629 354.549 170.166L354.701 171.689L357.388 171.42L357.236 169.898C357.116 168.704 356.627 168.15 355.767 168.236ZM368.422 164.528C369.176 164.465 369.798 164.656 370.289 165.102C370.79 165.534 371.093 166.269 371.197 167.308L372.384 179.183L369.446 179.477L368.334 168.354C368.254 167.554 367.85 167.191 367.122 167.263C366.728 167.303 366.408 167.479 366.162 167.793C365.927 168.094 365.835 168.507 365.888 169.033L366.957 179.726L364.019 180.019L362.549 165.314L365.182 165.051L365.603 166.728C365.839 166.198 366.207 165.715 366.706 165.279C367.204 164.831 367.776 164.581 368.422 164.528ZM382.954 171.487L383.226 174.21C383.354 175.488 383.107 176.519 382.486 177.305C381.864 178.079 380.86 178.535 379.475 178.673C378.054 178.815 376.922 178.53 376.079 177.819C375.236 177.107 374.744 176.047 374.604 174.638L374.016 168.763C373.862 167.223 374.127 166.008 374.81 165.12C375.493 164.232 376.545 163.716 377.966 163.574C379.351 163.436 380.424 163.678 381.186 164.302C381.948 164.925 382.393 165.875 382.52 167.153L382.755 169.499L379.889 169.786L379.694 167.834C379.566 166.556 379.061 165.961 378.177 166.05C377.246 166.143 376.844 166.828 376.972 168.106L377.604 174.428C377.731 175.706 378.261 176.298 379.192 176.205C380.076 176.117 380.454 175.434 380.326 174.156L380.088 171.774L382.954 171.487ZM388.983 162.473C391.801 162.191 393.358 163.537 393.656 166.51L394.012 170.075L388.424 170.633L388.692 173.32C388.82 174.597 389.361 175.188 390.317 175.093C391.188 175.006 391.575 174.467 391.476 173.476L391.28 171.523L394.128 171.239L394.348 173.442C394.456 174.516 394.169 175.444 393.487 176.223C392.804 176.991 391.835 177.438 390.582 177.563C389.125 177.708 387.982 177.431 387.152 176.73C386.321 176.017 385.834 174.95 385.692 173.529L385.105 167.654C384.952 166.126 385.211 164.918 385.882 164.031C386.564 163.131 387.598 162.612 388.983 162.473ZM389.26 164.887C388.795 164.934 388.459 165.136 388.254 165.495C388.059 165.84 387.989 166.281 388.042 166.818L388.195 168.341L390.881 168.072L390.729 166.55C390.61 165.356 390.12 164.802 389.26 164.887ZM402.105 167.42C403.084 167.564 403.829 167.899 404.34 168.427C404.851 168.955 405.156 169.708 405.254 170.687L405.413 172.281C405.529 173.44 405.221 174.399 404.489 175.16C403.767 175.907 402.762 176.345 401.472 176.474C400.123 176.609 399.036 176.41 398.211 175.878C397.385 175.333 396.907 174.416 396.778 173.127L396.61 171.443L399.493 171.155L399.678 172.999C399.711 173.334 399.864 173.596 400.136 173.786C400.409 173.976 400.742 174.051 401.136 174.011C401.566 173.968 401.896 173.833 402.126 173.605C402.367 173.364 402.472 173.082 402.44 172.76L402.291 171.273C402.231 170.676 401.803 170.315 401.007 170.189L398.897 169.894C398.004 169.766 397.327 169.448 396.866 168.939C396.417 168.429 396.145 167.697 396.049 166.741L395.92 165.452C395.815 164.401 396.105 163.498 396.789 162.742C397.484 161.973 398.494 161.522 399.82 161.39C401.193 161.252 402.257 161.466 403.013 162.029C403.78 162.58 404.21 163.327 404.304 164.27L404.469 165.918L401.603 166.204L401.475 164.915C401.436 164.533 401.287 164.246 401.027 164.055C400.765 163.852 400.444 163.77 400.061 163.808C399.655 163.848 399.343 163.976 399.123 164.191C398.915 164.405 398.826 164.661 398.856 164.959L398.978 166.177C399.005 166.452 399.099 166.666 399.259 166.818C399.431 166.97 399.713 167.081 400.106 167.15L402.105 167.42ZM411.232 171.953L411.564 175.266L408.555 175.567L408.223 172.254L411.232 171.953Z" fill="white"/>
</g>
<defs>
<filter id="filter0_d_823_10942" x="3.50607" y="4.49426" width="460.172" height="268.945" filterUnits="userSpaceOnUse" color-interpolation-filters="sRGB">
<feFlood flood-opacity="0" result="BackgroundImageFix"/>
<feColorMatrix in="SourceAlpha" type="matrix" values="0 0 0 0 0 0 0 0 0 0 0 0 0 0 0 0 0 0 127 0" result="hardAlpha"/>
<feOffset dx="2" dy="2"/>
<feGaussianBlur stdDeviation="1"/>
<feColorMatrix type="matrix" values="0 0 0 0 0 0 0 0 0 0 0 0 0 0 0 0 0 0 0.2 0"/>
<feBlend mode="normal" in2="BackgroundImageFix" result="effect1_dropShadow_823_10942"/>
<feBlend mode="normal" in="SourceGraphic" in2="effect1_dropShadow_823_10942" result="shape"/>
</filter>
<clipPath id="clip0_823_10942">
<rect width="453.281" height="240.431" fill="white" transform="translate(0 45.0874) rotate(-5.70859)"/>
</clipPath>
</defs>
</svg>
