<svg width="418" height="187" viewBox="0 0 418 187" fill="none" xmlns="http://www.w3.org/2000/svg">
<g filter="url(#filter0_d_747_288)">
<path d="M404.887 2.7485H2.88591V164.508C2.88591 166.222 2.25304 169.576 3.41752 171.089C4.60733 172.652 7.64512 171.719 9.3159 171.593C10.6829 171.492 12.0752 171.366 13.4422 171.442C13.8726 171.442 14.2523 171.593 14.6827 171.694C15.189 171.82 15.6193 171.694 16.1256 171.644C17.2142 171.518 17.8723 171.795 18.9103 171.82C20.4798 171.871 21.6443 170.509 23.2391 171.089C24.4289 171.518 25.2643 171.694 26.5047 171.366C29.5172 170.559 32.555 168.996 35.694 169.198C36.8585 169.273 37.8458 169.702 38.985 169.878C40.5039 170.08 41.4152 170.08 42.7569 170.938C43.5164 171.417 44.3011 172.274 45.2884 172.123C45.6681 172.022 46.0479 171.871 46.3769 171.694C46.8073 171.568 47.2123 171.543 47.6427 171.618C48.9084 171.543 49.997 170.837 51.3134 170.736C52.7057 170.66 54.0221 170.862 55.3131 171.366C55.6422 171.518 55.9966 171.644 56.3257 171.795C56.7814 171.896 57.1611 171.77 57.4396 171.366C58.275 170.862 59.1357 170.408 60.047 170.005C61.3381 169.324 62.3507 168.416 63.3633 167.332C64.2999 166.172 65.3125 165.062 66.4011 164.054C66.8314 164.054 67.2364 164.054 67.6668 164.054C68.8313 165.163 70.1477 166.046 71.6665 166.676C73.1348 167.18 74.6284 167.685 76.0714 168.214C76.527 168.391 76.9827 168.542 77.4637 168.643C77.7928 168.719 78.1219 168.769 78.451 168.819C79.5901 168.971 80.6534 169.425 81.7925 169.652C82.957 169.878 84.0962 169.525 85.2354 169.399C86.2986 169.273 87.0327 169.601 87.9947 169.904C89.0832 170.232 90.3743 169.576 91.4122 169.248C92.2223 168.87 93.0577 168.819 93.9437 169.072C94.2981 169.374 94.6525 169.652 95.0069 169.954C95.336 170.232 95.6651 170.509 95.9942 170.761C96.7536 170.963 97.4878 170.988 98.2472 170.761C99.4117 170.585 101.31 170.055 102.399 170.761C102.677 171.013 102.981 171.265 103.26 171.518C103.614 172.047 104.044 172.198 104.576 171.997C105.918 171.795 107.158 170.862 108.55 170.988C109.411 171.064 110.247 171.366 111.133 171.417C112.651 171.518 114.018 170.711 115.512 170.761C116.651 170.811 117.335 171.669 118.398 172.022C119.461 172.375 120.955 171.845 122.018 171.618C122.955 171.417 123.562 171.77 124.423 171.82C125.689 171.921 126.802 171.24 127.942 170.837C129.131 170.383 130.093 170.761 131.309 170.786C132.903 170.837 134.448 170.232 136.017 170.232C137.283 170.232 138.447 170.912 139.713 170.862C141.257 170.786 142.675 170.105 144.143 169.727C145.308 169.248 146.447 169.223 147.586 169.652C148.624 169.904 149.662 170.181 150.7 170.484C152.497 170.585 154.219 170.005 155.991 169.853C157.763 169.727 158.471 170.307 159.99 170.711C161.762 171.19 163.534 170.458 165.306 170.332C166.699 170.232 167.509 170.711 168.8 170.938C170.395 171.215 171.99 170.963 173.584 170.938C175.584 170.938 177.559 171.038 179.533 171.139C180.495 171.19 181.483 171.24 182.445 171.265C183.457 171.291 184.571 171.089 185.482 171.568C185.837 171.795 186.191 171.997 186.571 172.224C187.128 172.602 187.634 172.551 188.09 172.123C188.622 171.896 189.102 171.568 189.508 171.19C190.09 170.685 190.723 170.282 191.406 169.954C191.988 169.878 192.14 170.131 192.824 169.828C194.064 169.273 195.558 168.189 196.899 168.038C197.861 167.937 198.418 168.088 199.279 168.441C200.747 169.046 201.633 168.567 203.178 168.416C204.013 168.34 204.621 168.416 205.405 168.567C205.582 168.744 205.785 168.769 206.013 168.643C206.519 168.517 207 168.416 207.506 168.265C208.266 168.139 209 168.063 209.684 168.517C210.19 168.845 210.266 170.559 210.949 170.635C211.304 170.509 211.633 170.383 211.987 170.257C212.645 170.055 213.329 169.878 213.987 169.677C215.607 169.299 217.455 169.122 218.772 170.257C219.582 170.963 220.139 172.072 221.202 172.476C222.037 172.804 223.708 171.971 224.645 171.946C225.429 171.946 226.113 172.249 226.898 172.249C228.113 172.249 229.252 171.845 230.467 171.921C231.454 171.971 232.391 172.198 233.378 172.224C234.239 172.249 235.1 172.173 235.96 172.224C236.77 172.274 237.581 172.425 238.416 172.45C240.188 172.501 241.985 172.476 243.757 172.501C245.479 172.501 246.896 172.097 248.365 171.19C249.884 170.257 251.276 169.097 253.124 169.147C253.706 169.248 254.288 169.349 254.871 169.475C256.06 169.475 257.276 169.576 258.465 169.727C259.149 169.652 259.756 169.803 260.313 170.181C261.073 170.685 261.883 170.912 262.769 170.811C263.68 170.711 264.592 170.484 265.503 170.559C266.921 170.685 268.338 171.291 269.604 171.896C270.541 172.35 271.427 172.829 272.414 173.106C273.983 173.535 275.73 173.636 277.35 173.686C279.401 173.762 281.477 173.636 283.527 173.661C285.73 173.661 287.831 173.383 290.033 173.157C290.944 173.056 291.78 173.005 292.691 173.157C293.4 173.283 294.008 173.409 294.742 173.383C295.83 173.333 297.121 172.804 298.184 173.232C298.767 173.459 298.969 173.787 299.602 173.837C300.412 173.913 301.324 173.434 302.108 173.207C302.437 172.98 302.792 172.955 303.121 173.131C303.425 173.131 303.627 173.257 303.728 173.56C304.285 173.989 304.437 174.342 305.222 174.266C306.26 174.165 306.665 173.661 307.045 172.778C307.222 172.123 307.399 171.442 307.576 170.786C307.981 169.803 308.412 168.845 308.817 167.861C309.323 167.105 309.829 166.348 310.336 165.592C310.665 165.441 311.019 165.289 311.348 165.113C312.209 166.424 312.741 167.886 313.449 169.299C313.703 169.778 313.88 170.282 314.31 170.635C317.348 173.056 321.246 171.391 324.689 171.19C326.917 171.064 329.018 171.291 331.22 171.442C333.575 171.593 335.777 171.265 338.081 170.988C340.916 170.635 343.853 171.038 346.713 171.114C348.435 171.164 350.055 171.291 351.726 171.719C353.27 172.097 354.89 172.677 356.485 172.602C357.649 172.551 358.687 172.097 359.75 171.669C361.7 170.887 363.598 170.181 365.649 169.702C367.142 169.349 368.484 169.349 370.003 169.525C372.104 169.752 374.18 170.03 376.306 170.08C379.724 170.156 383.116 169.752 386.534 169.778C387.799 169.778 388.989 170.206 390.229 170.433C390.71 170.509 391.191 170.585 391.698 170.61C392.204 170.66 392.736 170.66 393.242 170.711C394.862 170.837 396.584 171.492 398.229 171.24C398.609 171.19 398.963 171.064 399.343 171.064C401.039 171.064 402.912 171.417 404.355 170.257C405.393 169.425 404.912 168.416 404.862 167.281C404.836 166.298 404.862 165.314 404.862 164.356V2.7485H404.887Z" fill="#F8CC1F"/>
</g>
<path d="M79.4635 13.3139C80.7039 13.3139 81.9697 13.3139 83.2101 13.3139C89.792 13.3139 96.3739 12.7844 102.956 12.8096C108.728 12.8096 114.499 12.8096 120.271 12.8096C133.283 12.8096 146.244 12.9105 159.256 13.2131C164.572 13.3391 169.888 13.7678 175.205 13.7678C182.445 13.7678 189.685 13.6165 196.899 13.7174C209.633 13.9191 222.468 14.9025 235.201 13.9695C240.694 13.5661 246.213 13.7426 251.706 13.7426C253.934 13.7426 256.162 13.6922 258.389 13.7426C260.339 13.7678 262.44 14.1713 264.364 13.9695C264.921 13.8939 265.452 13.7174 266.009 13.5913C268.085 13.1374 270.262 13.3139 272.363 13.2635C282.92 12.9609 293.476 12.6835 304.058 12.4062C314.943 12.1036 325.854 12.3557 336.739 12.3557C347.624 12.3557 357.548 12.154 367.927 12.3053C373.218 12.3809 380.205 13.0365 384.458 16.6928C385.622 17.7015 386.23 19.1388 387.09 20.3995C388.28 22.1394 389.268 23.9802 390.078 25.947C390.381 26.6783 390.761 27.3087 391.116 28.0147C391.824 29.4268 391.698 31.091 391.774 32.6292C392.103 38.3027 392.28 44.0015 392.153 49.7002C391.926 62.0055 390.761 74.336 389.799 86.5909C389.445 90.928 389.9 95.2651 389.546 99.577C389.242 103.132 388.559 106.562 388.711 110.142C388.863 113.294 388.533 116.144 388.078 119.22C387.521 122.851 387.496 126.331 387.496 129.987C387.496 131.778 388.103 134.753 386.483 136.089C385.242 137.098 384.812 137.728 384.559 139.393C384.23 141.41 384.407 143.528 384.002 145.495C383.065 149.933 380.205 152.757 375.901 153.917C373.015 154.699 369.927 154.396 366.99 154.371C363.674 154.371 360.333 154.245 357.016 154.346C352.029 154.472 347.144 154.85 342.156 154.85C330.36 154.85 318.563 154.85 306.766 154.85C301.222 154.85 295.704 154.875 290.16 154.85C287.35 154.85 284.818 154.926 282.059 155.354C278.363 155.909 274.642 155.707 270.946 155.354C269.351 155.203 267.781 154.875 266.212 155.152C264.541 155.455 262.819 155.379 261.098 155.379C253.2 155.43 245.327 155.43 237.429 155.354C226.543 155.253 215.658 155.026 204.772 154.598C197.431 154.32 190.115 153.917 182.774 153.564C179.078 153.362 175.356 153.186 171.66 153.034C170.066 152.959 168.471 152.908 166.876 152.984C165.155 153.06 163.484 153.488 161.762 153.488C160.066 153.488 158.193 153.261 156.522 153.589C153.535 154.169 150.497 153.967 147.459 153.967H137.156C130.473 153.967 123.739 153.766 117.056 153.967C112.702 154.093 108.449 155.329 104.095 155.43C100.5 155.506 96.9055 155.43 93.3108 155.43C89.7161 155.43 86.2479 155.43 82.7291 155.43C77.8687 155.43 73.0588 154.926 68.1984 154.951C65.5909 154.951 63.0594 155.077 60.4773 155.329C57.642 155.581 54.4777 154.951 51.6171 154.926C45.6681 154.875 39.7191 155.178 33.7954 155.001C31.4158 154.926 29.0362 154.699 26.6566 154.522C24.4289 154.346 22.0746 154.295 19.9481 153.589C17.5685 152.807 16.961 150.664 16.4547 148.42C16.1762 147.134 15.5433 146.226 15.1383 144.965C14.6826 143.553 14.5054 141.99 14.227 140.527C13.8725 138.561 14.1257 136.72 13.9991 134.728C13.8979 132.635 13.3156 130.744 12.8346 128.726C12.3283 126.457 12.5309 124.188 12.5562 121.868C12.5562 118.489 11.7461 115.211 11.7461 111.832C11.7461 107.848 12.2524 103.838 12.4296 99.8544C12.5815 96.5763 11.9486 92.794 13.189 89.7176C13.5688 88.8099 14.0751 87.9777 14.3029 86.9943C14.4548 86.3387 14.4801 85.6831 14.4801 85.0275C14.4548 81.2956 13.4928 77.6141 13.4675 73.8569C13.4169 68.8894 13.7207 64.048 14.1004 59.1057C14.3282 56.1303 14.2523 53.0792 14.5307 50.1037C14.7586 47.6326 15.2649 45.2118 15.6446 42.7659C16.5306 37.2184 16.1762 31.6962 17.2647 26.174C17.8723 23.0976 18.3533 19.5926 20.6063 17.2476C22.5303 15.2555 24.7326 15.6338 27.2388 15.2051C29.4665 14.8269 31.6689 14.3226 33.8713 13.8939C37.0357 13.2635 40.1241 13.44 43.3391 13.44C47.2882 13.44 51.2374 13.44 55.2118 13.44C63.2873 13.44 71.3881 13.44 79.4635 13.44V13.3139Z" stroke="black" stroke-width="0.5" stroke-linecap="round" stroke-linejoin="round"/>
<path d="M56.008 70.692V73.95C56.008 75.306 55.624 76.356 54.856 77.1C54.1 77.832 53.02 78.198 51.616 78.198C50.176 78.198 49.066 77.772 48.286 76.92C47.506 76.068 47.116 74.868 47.116 73.32V65.67C47.116 64.134 47.506 62.94 48.286 62.088C49.066 61.236 50.176 60.81 51.616 60.81C53.02 60.81 54.1 61.176 54.856 61.908C55.624 62.64 56.008 63.678 56.008 65.022V67.992H53.056V65.148C53.056 64.62 52.93 64.2 52.678 63.888C52.426 63.576 52.084 63.42 51.652 63.42C51.22 63.42 50.86 63.582 50.572 63.906C50.296 64.218 50.158 64.632 50.158 65.148V73.842C50.158 74.37 50.296 74.796 50.572 75.12C50.848 75.432 51.202 75.588 51.634 75.588C52.066 75.588 52.408 75.432 52.66 75.12C52.924 74.796 53.056 74.37 53.056 73.842V70.692H56.008ZM64.2566 63.222H67.2086V78H64.5806L64.3106 76.29C64.0346 76.782 63.6206 77.226 63.0686 77.622C62.5286 78.006 61.9346 78.192 61.2866 78.18C60.5306 78.18 59.9246 77.928 59.4686 77.424C59.0246 76.92 58.8026 76.116 58.8026 75.012V63.222H61.7546V74.4C61.7546 75.204 62.1206 75.606 62.8526 75.606C63.2486 75.606 63.5786 75.462 63.8426 75.174C64.1186 74.886 64.2566 74.478 64.2566 73.95V63.222ZM76.1338 63.042C76.8658 63.042 77.4478 63.306 77.8798 63.834C78.3238 64.35 78.5458 65.178 78.5458 66.318V71.502H75.5938V67.038C75.5938 66.534 75.5218 66.174 75.3778 65.958C75.2458 65.73 74.9938 65.616 74.6218 65.616C74.2498 65.616 73.9258 65.796 73.6498 66.156C73.3858 66.504 73.2538 66.996 73.2538 67.632V78H70.3018V63.222H72.9478L73.1278 64.95C73.5598 64.314 73.9858 63.84 74.4058 63.528C74.8378 63.204 75.4138 63.042 76.1338 63.042ZM86.9085 63.042C87.6405 63.042 88.2225 63.306 88.6545 63.834C89.0985 64.35 89.3205 65.178 89.3205 66.318V71.502H86.3685V67.038C86.3685 66.534 86.2965 66.174 86.1525 65.958C86.0205 65.73 85.7685 65.616 85.3965 65.616C85.0245 65.616 84.7005 65.796 84.4245 66.156C84.1605 66.504 84.0285 66.996 84.0285 67.632V78H81.0765V63.222H83.7225L83.9025 64.95C84.3345 64.314 84.7605 63.84 85.1805 63.528C85.6125 63.204 86.1885 63.042 86.9085 63.042ZM95.8849 63.024C98.7169 63.024 100.133 64.518 100.133 67.506V71.088H94.5169V73.788C94.5169 75.072 94.9969 75.714 95.9569 75.714C96.8329 75.714 97.2709 75.216 97.2709 74.22V72.258H100.133V74.472C100.133 75.552 99.7549 76.446 98.9989 77.154C98.2429 77.85 97.2349 78.198 95.9749 78.198C94.5109 78.198 93.4009 77.808 92.6449 77.028C91.8889 76.236 91.5109 75.126 91.5109 73.698V67.794C91.5109 66.258 91.8889 65.082 92.6449 64.266C93.4129 63.438 94.4929 63.024 95.8849 63.024ZM95.9209 65.454C95.4529 65.454 95.0989 65.622 94.8589 65.958C94.6309 66.282 94.5169 66.714 94.5169 67.254V68.784H97.2169V67.254C97.2169 66.054 96.7849 65.454 95.9209 65.454ZM108.882 63.024C109.638 63.036 110.238 63.288 110.682 63.78C111.138 64.26 111.366 65.022 111.366 66.066V78H108.414V66.822C108.414 66.018 108.048 65.616 107.316 65.616C106.92 65.616 106.584 65.76 106.308 66.048C106.044 66.324 105.912 66.726 105.912 67.254V78H102.96V63.222H105.606L105.858 64.932C106.146 64.428 106.56 63.984 107.1 63.6C107.64 63.204 108.234 63.012 108.882 63.024ZM120.419 65.616H117.953V74.076C117.953 74.964 118.331 75.408 119.087 75.408H120.491V78H118.493C117.329 78 116.453 77.712 115.865 77.136C115.289 76.56 115.001 75.762 115.001 74.742V65.616H113.183V63.222C114.167 63.222 114.809 63.078 115.109 62.79C115.409 62.502 115.649 61.902 115.829 60.99H118.007V63.222H120.419V65.616ZM122.699 60.9H125.669V78H122.699V60.9ZM132.83 73.014L133.352 69.594L134.216 63.222H137.312L134.666 76.488C134.354 77.736 133.85 78.636 133.154 79.188C132.47 79.74 131.684 80.016 130.796 80.016H128.186V77.586H129.788C130.328 77.586 130.724 77.388 130.976 76.992L127.988 63.222H131.066L132.074 69.594L132.614 73.014H132.83ZM149.439 69.252C150.399 69.492 151.107 69.9 151.563 70.476C152.019 71.052 152.247 71.832 152.247 72.816V74.418C152.247 75.582 151.845 76.506 151.041 77.19C150.249 77.862 149.205 78.198 147.909 78.198C146.553 78.198 145.491 77.892 144.723 77.28C143.955 76.656 143.571 75.696 143.571 74.4V72.708H146.469V74.562C146.469 74.898 146.595 75.174 146.847 75.39C147.099 75.606 147.423 75.714 147.819 75.714C148.251 75.714 148.593 75.612 148.845 75.408C149.109 75.192 149.241 74.922 149.241 74.598V73.104C149.241 72.504 148.851 72.102 148.071 71.898L146.001 71.394C145.125 71.178 144.483 70.794 144.075 70.242C143.679 69.69 143.481 68.934 143.481 67.974V66.678C143.481 65.622 143.859 64.752 144.615 64.068C145.383 63.372 146.433 63.024 147.765 63.024C149.145 63.024 150.183 63.342 150.879 63.978C151.587 64.602 151.941 65.388 151.941 66.336V67.992H149.061V66.696C149.061 66.312 148.941 66.012 148.701 65.796C148.461 65.568 148.149 65.454 147.765 65.454C147.357 65.454 147.033 65.55 146.793 65.742C146.565 65.934 146.451 66.18 146.451 66.48V67.704C146.451 67.98 146.523 68.202 146.667 68.37C146.823 68.538 147.093 68.676 147.477 68.784L149.439 69.252ZM160.845 65.616H158.379V74.076C158.379 74.964 158.757 75.408 159.513 75.408H160.917V78H158.919C157.755 78 156.879 77.712 156.291 77.136C155.715 76.56 155.427 75.762 155.427 74.742V65.616H153.609V63.222C154.593 63.222 155.235 63.078 155.535 62.79C155.835 62.502 156.075 61.902 156.255 60.99H158.433V63.222H160.845V65.616ZM168.417 63.222H171.369V78H168.741L168.471 76.29C168.195 76.782 167.781 77.226 167.229 77.622C166.689 78.006 166.095 78.192 165.447 78.18C164.691 78.18 164.085 77.928 163.629 77.424C163.185 76.92 162.963 76.116 162.963 75.012V63.222H165.915V74.4C165.915 75.204 166.281 75.606 167.013 75.606C167.409 75.606 167.739 75.462 168.003 75.174C168.279 74.886 168.417 74.478 168.417 73.95V63.222ZM177.036 63.024C177.684 63.024 178.212 63.18 178.62 63.492C179.028 63.792 179.406 64.224 179.754 64.788V60.9H182.706V78H179.754V76.326C179.454 76.926 179.088 77.394 178.656 77.73C178.236 78.054 177.696 78.21 177.036 78.198C176.196 78.186 175.512 77.886 174.984 77.298C174.456 76.698 174.192 75.768 174.192 74.508V66.714C174.192 65.454 174.456 64.524 174.984 63.924C175.512 63.324 176.196 63.024 177.036 63.024ZM178.422 65.508C177.582 65.508 177.162 66.102 177.162 67.29V73.95C177.162 75.126 177.582 75.714 178.422 75.714C179.298 75.714 179.736 75.096 179.736 73.86V67.362C179.736 66.126 179.298 65.508 178.422 65.508ZM189.867 73.014L190.389 69.594L191.253 63.222H194.349L191.703 76.488C191.391 77.736 190.887 78.636 190.191 79.188C189.507 79.74 188.721 80.016 187.833 80.016H185.223V77.586H186.825C187.365 77.586 187.761 77.388 188.013 76.992L185.025 63.222H188.103L189.111 69.594L189.651 73.014H189.867ZM196.715 60.9H199.649V62.502H196.715V60.9ZM196.697 63.222H199.667V78H196.697V63.222ZM208.683 63.024C209.439 63.036 210.039 63.288 210.483 63.78C210.939 64.26 211.167 65.022 211.167 66.066V78H208.215V66.822C208.215 66.018 207.849 65.616 207.117 65.616C206.721 65.616 206.385 65.76 206.109 66.048C205.845 66.324 205.713 66.726 205.713 67.254V78H202.761V63.222H205.407L205.659 64.932C205.947 64.428 206.361 63.984 206.901 63.6C207.441 63.204 208.035 63.012 208.683 63.024ZM219.696 63.204H222.342V76.308C222.342 77.604 222.006 78.546 221.334 79.134C220.662 79.722 219.78 80.016 218.688 80.016H214.71V77.586H217.896C218.4 77.586 218.778 77.478 219.03 77.262C219.282 77.034 219.408 76.662 219.408 76.146V74.778C219.06 75.45 218.676 75.954 218.256 76.29C217.848 76.626 217.314 76.788 216.654 76.776C215.814 76.776 215.13 76.488 214.602 75.912C214.074 75.324 213.81 74.43 213.81 73.23V66.588C213.81 65.388 214.074 64.494 214.602 63.906C215.13 63.318 215.814 63.024 216.654 63.024C217.302 63.024 217.836 63.198 218.256 63.546C218.676 63.882 219.054 64.344 219.39 64.932L219.696 63.204ZM218.04 65.508C217.656 65.508 217.35 65.652 217.122 65.94C216.894 66.216 216.78 66.636 216.78 67.2V72.51C216.78 73.698 217.2 74.292 218.04 74.292C218.928 74.292 219.372 73.674 219.372 72.438V67.362C219.372 66.126 218.928 65.508 218.04 65.508ZM236.725 69.288C237.373 69.444 237.901 69.786 238.309 70.314C238.729 70.842 238.939 71.526 238.939 72.366V74.238C238.939 75.366 238.579 76.278 237.859 76.974C237.139 77.658 236.137 78 234.853 78H229.867V60.99H234.889C236.053 60.99 236.959 61.296 237.607 61.908C238.267 62.52 238.597 63.318 238.597 64.302V66.12C238.597 67.752 237.973 68.754 236.725 69.126V69.288ZM234.367 63.564H232.873V67.974H234.385C234.781 67.974 235.093 67.866 235.321 67.65C235.561 67.422 235.681 67.098 235.681 66.678V64.86C235.681 63.996 235.243 63.564 234.367 63.564ZM234.241 70.476H232.873V75.426H234.223C235.363 75.426 235.933 74.892 235.933 73.824V71.988C235.933 71.508 235.783 71.136 235.483 70.872C235.195 70.608 234.781 70.476 234.241 70.476ZM244.847 74.67V78H241.823V74.67H244.847ZM256.998 66.318H254.028V64.824C254.028 63.888 253.542 63.42 252.57 63.42C252.126 63.42 251.784 63.534 251.544 63.762C251.304 63.99 251.184 64.278 251.184 64.626V66.048C251.184 66.432 251.268 66.726 251.436 66.93C251.616 67.134 251.916 67.314 252.336 67.47L253.974 68.028C255.078 68.424 255.894 68.916 256.422 69.504C256.962 70.08 257.232 70.944 257.232 72.096V73.932C257.232 75.228 256.818 76.266 255.99 77.046C255.174 77.814 254.088 78.198 252.732 78.198C251.34 78.198 250.242 77.85 249.438 77.154C248.646 76.458 248.25 75.522 248.25 74.346V72.204H251.256V74.058C251.256 74.502 251.382 74.868 251.634 75.156C251.886 75.444 252.252 75.588 252.732 75.588C253.176 75.588 253.53 75.45 253.794 75.174C254.058 74.898 254.19 74.556 254.19 74.148V72.402C254.19 71.622 253.728 71.076 252.804 70.764L251.076 70.206C250.08 69.882 249.348 69.42 248.88 68.82C248.412 68.22 248.178 67.386 248.178 66.318V64.734C248.178 63.63 248.556 62.7 249.312 61.944C250.068 61.188 251.172 60.81 252.624 60.81C254.028 60.81 255.108 61.146 255.864 61.818C256.62 62.49 256.998 63.378 256.998 64.482V66.318ZM268.431 71.394V74.13C268.431 75.414 268.083 76.416 267.387 77.136C266.691 77.844 265.647 78.198 264.255 78.198C262.827 78.198 261.729 77.802 260.961 77.01C260.193 76.218 259.809 75.114 259.809 73.698V67.794C259.809 66.246 260.193 65.064 260.961 64.248C261.729 63.432 262.827 63.024 264.255 63.024C265.647 63.024 266.691 63.372 267.387 64.068C268.083 64.764 268.431 65.754 268.431 67.038V69.396H265.551V67.434C265.551 66.15 265.107 65.508 264.219 65.508C263.283 65.508 262.815 66.15 262.815 67.434V73.788C262.815 75.072 263.283 75.714 264.219 75.714C265.107 75.714 265.551 75.072 265.551 73.788V71.394H268.431ZM274.517 74.67V78H271.493V74.67H274.517ZM278.028 60.99H281.034V78H278.028V60.99ZM292.418 60.99V63.564H289.25V78H286.262V63.564H283.094V60.99H292.418ZM304.169 78L303.917 76.182C303.329 77.526 302.351 78.198 300.983 78.198C300.179 78.198 299.495 77.916 298.931 77.352C298.367 76.788 298.085 76.002 298.085 74.994V73.356C298.085 71.4 299.069 70.104 301.037 69.468L303.827 68.586V66.588C303.827 66.252 303.725 65.982 303.521 65.778C303.329 65.562 303.035 65.454 302.639 65.454C302.219 65.454 301.907 65.568 301.703 65.796C301.499 66.012 301.397 66.288 301.397 66.624V68.154H298.535V66.39C298.535 65.382 298.871 64.572 299.543 63.96C300.227 63.336 301.259 63.024 302.639 63.024C305.411 63.024 306.797 64.332 306.797 66.948V78H304.169ZM303.845 70.998L302.207 71.538C301.439 71.79 301.055 72.318 301.055 73.122L301.037 74.634C301.037 74.958 301.127 75.222 301.307 75.426C301.499 75.618 301.763 75.714 302.099 75.714C302.555 75.714 302.957 75.54 303.305 75.192C303.665 74.832 303.845 74.34 303.845 73.716V70.998ZM315.854 65.616H313.388V74.076C313.388 74.964 313.766 75.408 314.522 75.408H315.926V78H313.928C312.764 78 311.888 77.712 311.3 77.136C310.724 76.56 310.436 75.762 310.436 74.742V65.616H308.618V63.222C309.602 63.222 310.244 63.078 310.544 62.79C310.844 62.502 311.084 61.902 311.264 60.99H313.442V63.222H315.854V65.616ZM53.776 104L53.254 100.49L49.672 100.454L49.132 104H46.036L49.294 86.99H53.722L56.926 104H53.776ZM50.068 97.916H52.858L52.084 92.75L51.562 89.69H51.364L50.86 92.75L50.068 97.916ZM64.2085 95.252C65.1685 95.492 65.8765 95.9 66.3325 96.476C66.7885 97.052 67.0165 97.832 67.0165 98.816V100.418C67.0165 101.582 66.6145 102.506 65.8105 103.19C65.0185 103.862 63.9745 104.198 62.6785 104.198C61.3225 104.198 60.2605 103.892 59.4925 103.28C58.7245 102.656 58.3405 101.696 58.3405 100.4V98.708H61.2385V100.562C61.2385 100.898 61.3645 101.174 61.6165 101.39C61.8685 101.606 62.1925 101.714 62.5885 101.714C63.0205 101.714 63.3625 101.612 63.6145 101.408C63.8785 101.192 64.0105 100.922 64.0105 100.598V99.104C64.0105 98.504 63.6205 98.102 62.8405 97.898L60.7705 97.394C59.8945 97.178 59.2525 96.794 58.8445 96.242C58.4485 95.69 58.2505 94.934 58.2505 93.974V92.678C58.2505 91.622 58.6285 90.752 59.3845 90.068C60.1525 89.372 61.2025 89.024 62.5345 89.024C63.9145 89.024 64.9525 89.342 65.6485 89.978C66.3565 90.602 66.7105 91.388 66.7105 92.336V93.992H63.8305V92.696C63.8305 92.312 63.7105 92.012 63.4705 91.796C63.2305 91.568 62.9185 91.454 62.5345 91.454C62.1265 91.454 61.8025 91.55 61.5625 91.742C61.3345 91.934 61.2205 92.18 61.2205 92.48V93.704C61.2205 93.98 61.2925 94.202 61.4365 94.37C61.5925 94.538 61.8625 94.676 62.2465 94.784L64.2085 95.252ZM69.564 86.9H72.498V88.502H69.564V86.9ZM69.546 89.222H72.516V104H69.546V89.222ZM81.1717 104L80.9197 102.182C80.3317 103.526 79.3537 104.198 77.9857 104.198C77.1817 104.198 76.4977 103.916 75.9337 103.352C75.3697 102.788 75.0877 102.002 75.0877 100.994V99.356C75.0877 97.4 76.0717 96.104 78.0397 95.468L80.8297 94.586V92.588C80.8297 92.252 80.7277 91.982 80.5237 91.778C80.3317 91.562 80.0377 91.454 79.6417 91.454C79.2217 91.454 78.9097 91.568 78.7057 91.796C78.5017 92.012 78.3997 92.288 78.3997 92.624V94.154H75.5377V92.39C75.5377 91.382 75.8737 90.572 76.5457 89.96C77.2297 89.336 78.2617 89.024 79.6417 89.024C82.4137 89.024 83.7997 90.332 83.7997 92.948V104H81.1717ZM80.8477 96.998L79.2097 97.538C78.4417 97.79 78.0577 98.318 78.0577 99.122L78.0397 100.634C78.0397 100.958 78.1297 101.222 78.3097 101.426C78.5017 101.618 78.7657 101.714 79.1017 101.714C79.5577 101.714 79.9597 101.54 80.3077 101.192C80.6677 100.832 80.8477 100.34 80.8477 99.716V96.998ZM95.6863 98.888H94.1743V104H91.1683V86.99H95.6323C97.0483 86.99 98.1523 87.374 98.9443 88.142C99.7363 88.91 100.132 90.008 100.132 91.436V94.298C100.132 95.69 99.7123 96.806 98.8723 97.646C98.0323 98.474 96.9703 98.888 95.6863 98.888ZM95.3803 96.314C95.9083 96.314 96.3223 96.14 96.6223 95.792C96.9223 95.432 97.0723 94.94 97.0723 94.316V91.49C97.0723 90.866 96.9223 90.392 96.6223 90.068C96.3223 89.732 95.9083 89.564 95.3803 89.564H94.1743V96.314H95.3803ZM108.047 104L107.795 102.182C107.207 103.526 106.229 104.198 104.861 104.198C104.057 104.198 103.373 103.916 102.809 103.352C102.245 102.788 101.963 102.002 101.963 100.994V99.356C101.963 97.4 102.947 96.104 104.915 95.468L107.705 94.586V92.588C107.705 92.252 107.603 91.982 107.399 91.778C107.207 91.562 106.913 91.454 106.517 91.454C106.097 91.454 105.785 91.568 105.581 91.796C105.377 92.012 105.275 92.288 105.275 92.624V94.154H102.413V92.39C102.413 91.382 102.749 90.572 103.421 89.96C104.105 89.336 105.137 89.024 106.517 89.024C109.289 89.024 110.675 90.332 110.675 92.948V104H108.047ZM107.723 96.998L106.085 97.538C105.317 97.79 104.933 98.318 104.933 99.122L104.915 100.634C104.915 100.958 105.005 101.222 105.185 101.426C105.377 101.618 105.641 101.714 105.977 101.714C106.433 101.714 106.835 101.54 107.183 101.192C107.543 100.832 107.723 100.34 107.723 99.716V96.998ZM121.963 97.394V100.13C121.963 101.414 121.615 102.416 120.919 103.136C120.223 103.844 119.179 104.198 117.787 104.198C116.359 104.198 115.261 103.802 114.493 103.01C113.725 102.218 113.341 101.114 113.341 99.698V93.794C113.341 92.246 113.725 91.064 114.493 90.248C115.261 89.432 116.359 89.024 117.787 89.024C119.179 89.024 120.223 89.372 120.919 90.068C121.615 90.764 121.963 91.754 121.963 93.038V95.396H119.083V93.434C119.083 92.15 118.639 91.508 117.751 91.508C116.815 91.508 116.347 92.15 116.347 93.434V99.788C116.347 101.072 116.815 101.714 117.751 101.714C118.639 101.714 119.083 101.072 119.083 99.788V97.394H121.963ZM124.773 86.9H127.707V88.502H124.773V86.9ZM124.755 89.222H127.725V104H124.755V89.222ZM135.156 88.214C134.748 88.214 134.544 88.382 134.544 88.718V89.222H137.154V91.616H134.544V103.982L131.592 104V91.616H129.774V89.222H131.592V88.646C131.592 87.482 132.378 86.9 133.95 86.9H137.154V88.214H135.156ZM139.133 86.9H142.067V88.502H139.133V86.9ZM139.115 89.222H142.085V104H139.115V89.222ZM153.53 97.394V100.13C153.53 101.414 153.182 102.416 152.486 103.136C151.79 103.844 150.746 104.198 149.354 104.198C147.926 104.198 146.828 103.802 146.06 103.01C145.292 102.218 144.908 101.114 144.908 99.698V93.794C144.908 92.246 145.292 91.064 146.06 90.248C146.828 89.432 147.926 89.024 149.354 89.024C150.746 89.024 151.79 89.372 152.486 90.068C153.182 90.764 153.53 91.754 153.53 93.038V95.396H150.65V93.434C150.65 92.15 150.206 91.508 149.318 91.508C148.382 91.508 147.914 92.15 147.914 93.434V99.788C147.914 101.072 148.382 101.714 149.318 101.714C150.206 101.714 150.65 101.072 150.65 99.788V97.394H153.53ZM169.413 86.99V100.184C169.413 101.492 169.029 102.494 168.261 103.19C167.505 103.874 166.431 104.216 165.039 104.216C163.659 104.216 162.591 103.874 161.835 103.19C161.079 102.506 160.701 101.528 160.701 100.256V86.99H163.707V99.986C163.707 100.526 163.833 100.928 164.085 101.192C164.337 101.456 164.661 101.588 165.057 101.588C165.957 101.588 166.407 101.054 166.407 99.986V86.99H169.413ZM178.52 89.024C179.276 89.036 179.876 89.288 180.32 89.78C180.776 90.26 181.004 91.022 181.004 92.066V104H178.052V92.822C178.052 92.018 177.686 91.616 176.954 91.616C176.558 91.616 176.222 91.76 175.946 92.048C175.682 92.324 175.55 92.726 175.55 93.254V104H172.598V89.222H175.244L175.496 90.932C175.784 90.428 176.198 89.984 176.738 89.6C177.278 89.204 177.872 89.012 178.52 89.024ZM183.953 86.9H186.887V88.502H183.953V86.9ZM183.935 89.222H186.905V104H183.935V89.222ZM194.067 100.13L194.445 97.16L195.615 89.168H198.693L195.705 104H192.249L189.225 89.168H192.303L193.491 97.07L193.887 100.13H194.067ZM204.895 89.024C207.727 89.024 209.143 90.518 209.143 93.506V97.088H203.527V99.788C203.527 101.072 204.007 101.714 204.967 101.714C205.843 101.714 206.281 101.216 206.281 100.22V98.258H209.143V100.472C209.143 101.552 208.765 102.446 208.009 103.154C207.253 103.85 206.245 104.198 204.985 104.198C203.521 104.198 202.411 103.808 201.655 103.028C200.899 102.236 200.521 101.126 200.521 99.698V93.794C200.521 92.258 200.899 91.082 201.655 90.266C202.423 89.438 203.503 89.024 204.895 89.024ZM204.931 91.454C204.463 91.454 204.109 91.622 203.869 91.958C203.641 92.282 203.527 92.714 203.527 93.254V94.784H206.227V93.254C206.227 92.054 205.795 91.454 204.931 91.454ZM217.802 89.042C218.534 89.042 219.116 89.306 219.548 89.834C219.992 90.35 220.214 91.178 220.214 92.318V97.502H217.262V93.038C217.262 92.534 217.19 92.174 217.046 91.958C216.914 91.73 216.662 91.616 216.29 91.616C215.918 91.616 215.594 91.796 215.318 92.156C215.054 92.504 214.922 92.996 214.922 93.632V104H211.97V89.222H214.616L214.796 90.95C215.228 90.314 215.654 89.84 216.074 89.528C216.506 89.204 217.082 89.042 217.802 89.042ZM228.235 95.252C229.195 95.492 229.903 95.9 230.359 96.476C230.815 97.052 231.043 97.832 231.043 98.816V100.418C231.043 101.582 230.641 102.506 229.837 103.19C229.045 103.862 228.001 104.198 226.705 104.198C225.349 104.198 224.287 103.892 223.519 103.28C222.751 102.656 222.367 101.696 222.367 100.4V98.708H225.265V100.562C225.265 100.898 225.391 101.174 225.643 101.39C225.895 101.606 226.219 101.714 226.615 101.714C227.047 101.714 227.389 101.612 227.641 101.408C227.905 101.192 228.037 100.922 228.037 100.598V99.104C228.037 98.504 227.647 98.102 226.867 97.898L224.797 97.394C223.921 97.178 223.279 96.794 222.871 96.242C222.475 95.69 222.277 94.934 222.277 93.974V92.678C222.277 91.622 222.655 90.752 223.411 90.068C224.179 89.372 225.229 89.024 226.561 89.024C227.941 89.024 228.979 89.342 229.675 89.978C230.383 90.602 230.737 91.388 230.737 92.336V93.992H227.857V92.696C227.857 92.312 227.737 92.012 227.497 91.796C227.257 91.568 226.945 91.454 226.561 91.454C226.153 91.454 225.829 91.55 225.589 91.742C225.361 91.934 225.247 92.18 225.247 92.48V93.704C225.247 93.98 225.319 94.202 225.463 94.37C225.619 94.538 225.889 94.676 226.273 94.784L228.235 95.252ZM233.59 86.9H236.524V88.502H233.59V86.9ZM233.572 89.222H236.542V104H233.572V89.222ZM245.828 91.616H243.362V100.076C243.362 100.964 243.74 101.408 244.496 101.408H245.9V104H243.902C242.738 104 241.862 103.712 241.274 103.136C240.698 102.56 240.41 101.762 240.41 100.742V91.616H238.592V89.222C239.576 89.222 240.218 89.078 240.518 88.79C240.818 88.502 241.058 87.902 241.238 86.99H243.416V89.222H245.828V91.616ZM252.158 99.014L252.68 95.594L253.544 89.222H256.64L253.994 102.488C253.682 103.736 253.178 104.636 252.482 105.188C251.798 105.74 251.012 106.016 250.124 106.016H247.514V103.586H249.116C249.656 103.586 250.052 103.388 250.304 102.992L247.316 89.222H250.394L251.402 95.594L251.942 99.014H252.158Z" fill="#4F4F4F"/>
<defs>
<filter id="filter0_d_747_288" x="2.71423" y="2.7485" width="406.302" height="175.528" filterUnits="userSpaceOnUse" color-interpolation-filters="sRGB">
<feFlood flood-opacity="0" result="BackgroundImageFix"/>
<feColorMatrix in="SourceAlpha" type="matrix" values="0 0 0 0 0 0 0 0 0 0 0 0 0 0 0 0 0 0 127 0" result="hardAlpha"/>
<feOffset dx="2" dy="2"/>
<feGaussianBlur stdDeviation="1"/>
<feColorMatrix type="matrix" values="0 0 0 0 0 0 0 0 0 0 0 0 0 0 0 0 0 0 0.2 0"/>
<feBlend mode="normal" in2="BackgroundImageFix" result="effect1_dropShadow_747_288"/>
<feBlend mode="normal" in="SourceGraphic" in2="effect1_dropShadow_747_288" result="shape"/>
</filter>
</defs>
</svg>
