<svg width="320" height="144" viewBox="0 0 320 144" fill="none" xmlns="http://www.w3.org/2000/svg">
<g clip-path="url(#clip0_747_315)">
<g filter="url(#filter0_d_747_315)">
<path d="M293.262 134.422C290.3 134.537 286.643 133.941 284.26 133.772C281.443 133.584 278.63 133.337 275.815 133.12L12.1247 112.759C7.50533 112.403 5.46028 111.618 6.52919 109.059C7.44916 106.861 6.54177 104.507 6.0388 102.245C5.60572 100.331 4.58605 98.1773 4.61124 96.2837C4.6479 94.8686 5.14626 93.7429 5.54037 92.4002C6.51762 89.1474 6.62529 85.8721 6.66537 82.532C6.67682 81.4433 7.15342 80.5995 7.59451 79.5888C8.0986 78.3889 8.00694 77.0684 8.10317 75.8222L12.5584 18.1219C12.7772 15.288 12.6535 12.8158 14.2608 10.1788C15.5383 8.05354 16.6679 5.64825 20.4807 4.85311C22.0056 4.53802 23.0597 4.6791 24.6269 4.75534C28.1224 4.93569 32.0659 4.32973 35.4972 4.08722C38.3683 3.891 41.551 4.36063 44.4381 4.58355C48.6004 4.90493 52.7867 5.22817 56.949 5.54956C62.4849 5.94715 67.6565 6.67483 73.0722 7.69C76.1266 8.25419 79.0698 8.06354 82.1368 8.15111C84.0455 8.19401 85.5097 8.66527 87.2959 9.04198C90.2265 9.6414 93.4447 9.65109 96.4281 9.88144C104.223 10.4833 112.019 11.0852 119.814 11.6871L251.25 21.8358C262.125 22.6754 273.167 23.2295 283.98 24.557C288.895 25.1604 293.87 25.6191 298.741 26.4728C301.415 26.948 304.267 27.6308 305.341 29.3854C306.783 31.7206 305.583 34.7175 305.409 36.9727L299.498 113.531C299.028 119.614 299.128 125.845 298.082 131.869C297.771 133.696 295.74 134.3 293.239 134.405L293.262 134.422Z" fill="#EEEEEE"/>
</g>
<path d="M20.8084 16.5948C20.7363 16.9026 20.6148 17.2216 20.4705 17.5239C19.8621 18.8202 19.0876 20.0738 18.6454 21.4128C17.4425 25.081 17.8916 29.2948 17.5995 33.0782C17.3967 35.7043 17.8 38.3175 17.6946 40.9362C17.6396 42.2752 17.3188 43.6087 17.336 44.9533C17.3532 45.9844 17.8562 46.9934 17.8493 48.0227C17.8448 52.7835 17.0886 57.5609 16.722 62.3087C16.5628 64.371 16.4036 66.4333 16.2443 68.4956C16.1699 69.46 15.8984 70.4689 15.9923 71.4463C16.1115 72.7241 16.5537 73.8926 16.43 75.1815C16.0909 78.6329 15.7999 82.0881 15.5811 85.5487C15.431 88.1192 15.8355 90.7176 15.7335 93.2918C15.6911 94.4676 15.2833 95.6749 15.3852 96.8619C15.5983 99.1171 15.9512 102.697 18.4649 104.622C20.361 106.082 23.6743 106.114 26.3185 106.348C37.1831 107.321 47.9846 108.797 58.8044 110.035C73.5356 111.71 88.3596 113.123 103.17 113.147C108.663 113.154 114.205 113.791 119.691 114.214L168.507 117.983C180.441 118.905 192.79 119.455 204.54 121.497C216.888 123.629 229.388 123.49 241.871 124.499C247.306 124.948 252.746 125.338 258.183 125.758C262.057 126.057 265.441 126.737 269.339 127.038C271.143 127.177 272.948 127.316 274.752 127.456C276.46 127.587 277.792 127.272 279.5 127.404C281.834 127.584 284.495 127.596 286.665 127.077C287.972 126.76 288.702 126.085 289.574 125.451C292.137 123.604 293.02 120 293.281 117.558C293.607 114.598 293.715 111.621 293.944 108.654C294.19 105.479 294.752 102.269 294.635 99.0806C294.506 95.7423 294.489 92.5171 294.769 89.1955C294.942 86.9551 294.361 84.7611 294.582 82.5244C294.798 80.362 295.683 78.296 295.827 76.128C295.963 74.3624 296.075 72.595 296.213 70.8146C296.37 68.7819 296.525 66.7641 296.706 64.7333C296.858 62.7749 296.352 60.8553 296.406 58.9043C296.623 52.0255 298.868 44.8855 296.717 37.9582C296.002 35.6195 294.725 33.3418 290.777 32.44C287.732 31.7571 284.208 31.9477 281.366 30.8327C280.567 30.5173 279.925 30.0499 279.073 29.8049C276.114 28.9496 272.187 29.333 269.084 29.0933C259.917 28.3856 250.727 27.6759 241.56 26.9681C236.387 26.5687 231.214 26.1693 226.066 25.7718C219.98 25.2869 213.912 25.1916 207.818 24.8106C193.607 23.9223 179.357 22.5981 165.162 21.502C158.353 20.9763 151.569 20.4524 144.76 19.9267C136.82 19.3137 128.861 18.9528 121.045 17.6777C107.302 15.4374 93.3554 16.4501 79.7 14.6346C76.8014 14.2466 73.8639 14.0496 70.9367 14.0325C66.0744 14.0004 61.2006 13.4897 56.3406 13.1145C53.1407 12.8674 49.9168 12.6185 46.7169 12.3714C42.5546 12.05 38.2022 11.6841 34.1167 10.9955C31.5606 10.5594 28.591 9.83753 25.9789 10.1284C23.196 10.4359 21.8567 12.1086 21.4408 13.7332C21.1716 14.7124 21.1453 15.6805 20.9024 16.6319L20.8084 16.5948Z" stroke="#272525" stroke-width="0.5" stroke-linecap="round" stroke-linejoin="round"/>
<path d="M67.817 49.7327L64.8558 49.504L64.9708 48.0145C65.0429 47.0812 64.5944 46.5772 63.6253 46.5024C63.1826 46.4682 62.8328 46.5555 62.576 46.7644C62.3191 46.9732 62.1773 47.2511 62.1505 47.5981L62.041 49.0159C62.0115 49.3987 62.0726 49.6983 62.2244 49.9147C62.3882 50.1319 62.6734 50.3345 63.0802 50.5223L64.6703 51.2048C65.7406 51.6846 66.5163 52.238 66.9974 52.8649C67.4915 53.4807 67.6942 54.3629 67.6055 55.5115L67.4642 57.3421C67.3644 58.6342 66.8717 59.6373 65.9861 60.3512C65.1134 61.0541 64.0011 61.3534 62.6491 61.249C61.2612 61.1418 60.1933 60.7103 59.4452 59.9545C58.7092 59.1996 58.3864 58.2359 58.4769 57.0634L58.6418 54.9277L61.6389 55.1592L61.4962 57.0076C61.462 57.4503 61.5595 57.8249 61.7885 58.1315C62.0176 58.438 62.3715 58.6098 62.85 58.6467C63.2927 58.6809 63.6563 58.5706 63.9407 58.3157C64.2252 58.0609 64.3831 57.73 64.4146 57.3233L64.549 55.5824C64.609 54.8047 64.1904 54.2248 63.2932 53.8426L61.6133 53.1532C60.6452 52.7535 59.9509 52.2365 59.5305 51.6023C59.1101 50.968 58.941 50.1185 59.0232 49.0537L59.1451 47.4744C59.2301 46.3736 59.6786 45.4755 60.4905 44.7799C61.3025 44.0844 62.4323 43.7925 63.88 43.9043C65.2799 44.0124 66.3308 44.4305 67.0328 45.1587C67.7348 45.8869 68.0433 46.8014 67.9584 47.9021L67.817 49.7327ZM74.5159 46.9461C77.3395 47.1641 78.6363 48.7627 78.4063 51.7418L78.1305 55.3132L72.5312 54.8809L72.3233 57.5728C72.2245 58.853 72.6536 59.5301 73.6108 59.604C74.4842 59.6714 74.9592 59.2086 75.0359 58.2156L75.187 56.2594L78.0405 56.4797L77.87 58.6872C77.7869 59.764 77.3412 60.6262 76.5329 61.2739C75.7256 61.9096 74.6938 62.179 73.4375 62.082C71.9779 61.9693 70.9012 61.495 70.2075 60.6591C69.5147 59.8113 69.2233 58.6755 69.3332 57.2517L69.7877 51.3652C69.906 49.8338 70.3734 48.6904 71.1899 47.935C72.0194 47.1686 73.1281 46.8389 74.5159 46.9461ZM74.3648 49.3717C73.8982 49.3356 73.5323 49.4759 73.2671 49.7924C73.0148 50.0979 72.8679 50.5198 72.8264 51.0582L72.7086 52.5837L75.4006 52.7916L75.5183 51.2661C75.6107 50.0697 75.2262 49.4382 74.3648 49.3717ZM84.9439 47.7513C87.7675 47.9693 89.0643 49.5679 88.8342 52.547L88.5585 56.1184L82.9591 55.686L82.7513 58.378C82.6524 59.6582 83.0816 60.3353 84.0387 60.4092C84.9121 60.4766 85.3872 60.0138 85.4639 59.0208L85.6149 57.0646L88.4684 57.2849L88.298 59.4923C88.2148 60.5691 87.7691 61.4314 86.9609 62.0791C86.1535 62.7148 85.1217 62.9842 83.8655 62.8872C82.4058 62.7745 81.3291 62.3002 80.6354 61.4643C79.9426 60.6164 79.6512 59.4806 79.7611 58.0569L80.2157 52.1704C80.3339 50.639 80.8013 49.4955 81.6179 48.7402C82.4474 47.9737 83.556 47.6441 84.9439 47.7513ZM84.7927 50.1768C84.3261 50.1408 83.9602 50.2811 83.6951 50.5976C83.4428 50.9031 83.2959 51.325 83.2543 51.8634L83.1365 53.3889L85.8285 53.5967L85.9463 52.0713C86.0387 50.8748 85.6541 50.2434 84.7927 50.1768ZM93.6301 56.3836L93.0883 63.4007L90.1271 63.1721L91.4435 46.1228L94.4047 46.3515L93.7396 54.9658L93.937 54.9811L97.241 48.8994L100.435 49.146L96.7669 55.7412L99.5311 63.8982L96.193 63.6404L93.8455 56.4002L93.6301 56.3836ZM102.17 46.951L105.095 47.1769L104.972 48.7741L102.047 48.5483L102.17 46.951ZM101.973 49.2648L104.934 49.4934L103.797 64.2275L100.835 63.9989L101.973 49.2648ZM113.221 49.9346C113.974 50.0048 114.552 50.3022 114.957 50.827C115.375 51.3406 115.544 52.1179 115.463 53.1588L114.544 65.0574L111.601 64.8302L112.462 53.6853C112.524 52.8837 112.19 52.4547 111.46 52.3984C111.065 52.3679 110.719 52.4856 110.422 52.7515C110.137 53.0064 109.975 53.397 109.934 53.9234L109.107 64.6375L106.163 64.4103L107.301 49.6761L109.939 49.8798L110.059 51.6042C110.385 51.1238 110.832 50.713 111.4 50.3717C111.969 50.0185 112.576 49.8728 113.221 49.9346ZM123.469 50.9065L126.108 51.1102L125.099 64.1753C124.999 65.4675 124.592 66.3808 123.876 66.9153C123.161 67.4499 122.259 67.6751 121.17 67.591L117.204 67.2848L117.391 64.862L120.568 65.1073C121.07 65.1461 121.455 65.0675 121.723 64.8715C121.992 64.6636 122.146 64.3024 122.186 63.7879L122.291 62.424C121.893 63.0672 121.471 63.5401 121.026 63.8428C120.594 64.1464 120.049 64.2668 119.392 64.204C118.554 64.1394 117.894 63.7996 117.412 63.1846C116.931 62.5577 116.737 61.6461 116.829 60.4496L117.34 53.8273C117.433 52.6309 117.765 51.7599 118.337 51.2143C118.908 50.6687 119.613 50.4282 120.45 50.4929C121.096 50.5427 121.615 50.7573 122.007 51.1366C122.4 51.504 122.742 51.9937 123.031 52.6058L123.469 50.9065ZM121.641 53.0762C121.258 53.0466 120.942 53.1666 120.692 53.4362C120.444 53.6939 120.298 54.1038 120.254 54.6662L119.846 59.9604C119.754 61.1449 120.127 61.7694 120.965 61.8341C121.85 61.9025 122.34 61.3205 122.436 60.0882L122.826 55.0272C122.921 53.7949 122.526 53.1445 121.641 53.0762ZM140.978 50.0378L139.962 63.1926C139.861 64.4968 139.401 65.4662 138.582 66.101C137.776 66.7248 136.679 66.9831 135.291 66.8759C133.915 66.7697 132.876 66.3465 132.175 65.6063C131.474 64.8662 131.173 63.862 131.27 62.5937L132.292 49.3671L135.289 49.5985L134.288 62.556C134.247 63.0944 134.341 63.5049 134.572 63.7875C134.803 64.0701 135.116 64.2266 135.511 64.2571C136.408 64.3264 136.898 63.8286 136.98 62.7638L137.981 49.8064L140.978 50.0378ZM143.58 50.2387L146.577 50.4701L145.267 67.4296L142.27 67.1982L143.58 50.2387ZM153.429 50.9089L156.265 51.1279L149.318 69.5478L146.464 69.3274L153.429 50.9089ZM166.338 51.9959L165.322 65.1508C165.221 66.4549 164.761 67.4244 163.942 68.0592C163.136 68.6829 162.039 68.9412 160.651 68.8341C159.275 68.7278 158.236 68.3046 157.535 67.5645C156.834 66.8243 156.533 65.8201 156.63 64.5519L157.652 51.3252L160.649 51.5567L159.648 64.5141C159.607 65.0525 159.701 65.463 159.932 65.7456C160.163 66.0282 160.476 66.1848 160.871 66.2153C161.768 66.2846 162.258 65.7868 162.34 64.7219L163.341 51.7645L166.338 51.9959ZM172.066 63.144L171.552 64.4222L169.748 69.3199L166.5 69.069L170.47 60.4391L168.15 52.1359L171.434 52.3894L172.324 56.7729L172.61 57.9685L172.844 57.9865L173.293 56.8477L174.88 52.6555L177.985 52.8952L174.397 60.7784L176.909 69.8728L173.624 69.6192L172.631 64.4874L172.3 63.162L172.066 63.144ZM57.6112 69.6782L60.6083 69.9096L59.2988 86.8691L56.3017 86.6377L57.6112 69.6782ZM68.8764 72.588C69.6292 72.6582 70.208 72.9557 70.6128 73.4804C71.0305 73.9941 71.1992 74.7713 71.1188 75.8122L70.2001 87.7108L67.2569 87.4836L68.1174 76.3387C68.1793 75.5371 67.8453 75.1081 67.1155 75.0518C66.7207 75.0213 66.3746 75.139 66.0772 75.4049C65.7928 75.6598 65.6302 76.0504 65.5896 76.5768L64.7623 87.291L61.819 87.0637L62.9567 72.3296L65.5949 72.5333L65.7145 74.2576C66.0404 73.7772 66.4874 73.3664 67.0553 73.0251C67.6242 72.6719 68.2312 72.5262 68.8764 72.588ZM79.4616 76.0051L77.0029 75.8152L76.3516 84.2501C76.2833 85.1355 76.626 85.6073 77.3797 85.6655L78.7796 85.7736L78.58 88.3579L76.588 88.2041C75.4274 88.1144 74.5762 87.7599 74.0343 87.1403C73.5043 86.5217 73.2786 85.7039 73.3571 84.6869L74.0597 75.588L72.2471 75.448L72.4314 73.0611C73.4125 73.1369 74.0637 73.0427 74.3849 72.7787C74.7062 72.5146 74.9917 71.9349 75.2414 71.0395L77.4129 71.2071L77.2411 73.4325L79.6459 73.6182L79.4616 76.0051ZM85.1681 73.846C87.9917 74.064 89.2885 75.6626 89.0584 78.6417L88.7827 82.2131L83.1834 81.7807L82.9755 84.4727C82.8766 85.7529 83.3058 86.43 84.263 86.5039C85.1364 86.5713 85.6114 86.1085 85.6881 85.1155L85.8391 83.1593L88.6926 83.3796L88.5222 85.587C88.439 86.6638 87.9933 87.5261 87.1851 88.1738C86.3777 88.8095 85.3459 89.0789 84.0897 88.9819C82.63 88.8692 81.5533 88.3949 80.8596 87.559C80.1668 86.7111 79.8754 85.5753 79.9853 84.1516L80.4399 78.2651C80.5581 76.7337 81.0255 75.5902 81.8421 74.8349C82.6716 74.0684 83.7802 73.7388 85.1681 73.846ZM85.0169 76.2715C84.5503 76.2355 84.1844 76.3758 83.9193 76.6923C83.667 76.9978 83.5201 77.4197 83.4785 77.9581L83.3607 79.4836L86.0527 79.6914L86.1705 78.166C86.2629 76.9695 85.8784 76.3381 85.0169 76.2715ZM97.3175 74.8021C98.0474 74.8585 98.6073 75.1665 98.9974 75.7262C99.4003 76.2748 99.5579 77.1175 99.4702 78.2541L99.0711 83.4227L96.1278 83.1955L96.4715 78.7447C96.5103 78.2422 96.4662 77.8777 96.3393 77.6513C96.2252 77.4138 95.9828 77.2807 95.6119 77.2521C95.241 77.2235 94.9041 77.378 94.6012 77.7157C94.3112 78.0423 94.1417 78.5227 94.0927 79.1568L93.2945 89.494L90.3513 89.2668L91.489 74.5326L94.1271 74.7363L94.1736 76.4731C94.6532 75.8722 95.1145 75.4324 95.5572 75.1537C96.0129 74.8639 96.5997 74.7467 97.3175 74.8021ZM107.433 75.5652C108.186 75.6353 108.765 75.9328 109.17 76.4575C109.588 76.9712 109.756 77.7485 109.676 78.7894L108.757 90.688L105.814 90.4607L106.674 79.3159C106.736 78.5143 106.402 78.0853 105.673 78.0289C105.278 77.9984 104.932 78.1161 104.634 78.382C104.35 78.6369 104.187 79.0275 104.147 79.554L103.319 90.2681L100.376 90.0408L101.514 75.3067L104.152 75.5104L104.272 77.2347C104.598 76.7544 105.044 76.3436 105.612 76.0023C106.181 75.649 106.788 75.5033 107.433 75.5652ZM117.109 82.5588C118.048 82.872 118.722 83.3333 119.132 83.9427C119.543 84.5521 119.71 85.3473 119.634 86.3284L119.511 87.9256C119.421 89.0862 118.949 89.9765 118.095 90.5966C117.254 91.2056 116.187 91.4602 114.895 91.3604C113.543 91.2561 112.508 90.8692 111.789 90.1999C111.071 89.5186 110.762 88.5319 110.862 87.2398L110.992 85.5528L113.882 85.7759L113.739 87.6244C113.713 87.9594 113.818 88.2443 114.052 88.479C114.287 88.7138 114.602 88.8464 114.996 88.8769C115.427 88.9101 115.776 88.8348 116.043 88.6508C116.323 88.4557 116.475 88.1967 116.5 87.8737L116.615 86.3841C116.661 85.7859 116.303 85.3551 115.541 85.0916L113.516 84.4298C112.66 84.147 112.049 83.7147 111.685 83.1329C111.332 82.5521 111.193 81.7831 111.267 80.8259L111.367 79.5337C111.448 78.4809 111.892 77.6426 112.698 77.0188C113.518 76.384 114.591 76.1179 115.919 76.2204C117.295 76.3266 118.306 76.7236 118.951 77.4113C119.609 78.0879 119.901 78.8989 119.828 79.8441L119.701 81.4951L116.829 81.2734L116.929 79.9813C116.958 79.5984 116.862 79.2901 116.639 79.0562C116.418 78.8104 116.115 78.6727 115.732 78.6432C115.326 78.6118 114.995 78.6825 114.741 78.8555C114.499 79.0294 114.366 79.2659 114.343 79.565L114.249 80.7853C114.228 81.0605 114.282 81.2874 114.413 81.466C114.556 81.6455 114.814 81.8039 115.189 81.9411L117.109 82.5588ZM128.097 77.1606C128.849 77.2308 129.428 77.5282 129.833 78.053C130.251 78.5666 130.419 79.3439 130.339 80.3848L129.42 92.2834L126.477 92.0562L127.338 80.9113C127.399 80.1097 127.066 79.6807 126.336 79.6244C125.941 79.5939 125.595 79.7116 125.297 79.9775C125.013 80.2324 124.85 80.623 124.81 81.1494L123.982 91.8635L121.039 91.6363L122.356 74.587L125.299 74.8143L124.989 78.8343C125.314 78.354 125.749 77.9423 126.293 77.5991C126.85 77.2449 127.451 77.0988 128.097 77.1606ZM132.959 75.4058L135.885 75.6316L135.761 77.2289L132.836 77.003L132.959 75.4058ZM132.763 77.7195L135.724 77.9481L134.586 92.6823L131.625 92.4536L132.763 77.7195ZM142.61 93.4824C141.952 93.4316 141.431 93.2409 141.047 92.9104C140.665 92.5679 140.322 92.1021 140.018 91.513L139.757 94.8869L136.814 94.6597L138.09 78.1309L140.729 78.3346L140.834 80.0037C141.565 78.8084 142.545 78.2642 143.777 78.3714C144.614 78.436 145.273 78.7878 145.753 79.4267C146.234 80.0655 146.426 81.0071 146.33 82.2514L145.728 90.0402C145.632 91.2845 145.292 92.185 144.707 92.7416C144.135 93.2992 143.436 93.5461 142.61 93.4824ZM141.4 90.9156C142.238 90.9803 142.702 90.4204 142.794 89.2359L143.306 82.5957C143.398 81.4112 143.025 80.7866 142.187 80.722C141.314 80.6545 140.83 81.237 140.734 82.4693L140.234 88.948C140.138 90.1923 140.527 90.8482 141.4 90.9156Z" fill="#4F4F4F"/>
</g>
<defs>
<filter id="filter0_d_747_315" x="4.61078" y="4.04037" width="305.432" height="134.396" filterUnits="userSpaceOnUse" color-interpolation-filters="sRGB">
<feFlood flood-opacity="0" result="BackgroundImageFix"/>
<feColorMatrix in="SourceAlpha" type="matrix" values="0 0 0 0 0 0 0 0 0 0 0 0 0 0 0 0 0 0 127 0" result="hardAlpha"/>
<feOffset dx="2" dy="2"/>
<feGaussianBlur stdDeviation="1"/>
<feColorMatrix type="matrix" values="0 0 0 0 0 0 0 0 0 0 0 0 0 0 0 0 0 0 0.2 0"/>
<feBlend mode="normal" in2="BackgroundImageFix" result="effect1_dropShadow_747_315"/>
<feBlend mode="normal" in="SourceGraphic" in2="effect1_dropShadow_747_315" result="shape"/>
</filter>
<clipPath id="clip0_747_315">
<rect width="311" height="120" fill="white" transform="translate(9.2381) rotate(4.41524)"/>
</clipPath>
</defs>
</svg>
