<svg width="77" height="79" viewBox="0 0 77 79" fill="none" xmlns="http://www.w3.org/2000/svg">
<g clip-path="url(#clip0_747_324)">
<g filter="url(#filter0_d_747_324)">
<path d="M71.7972 6.14775L6.4754 1.10403L1.28785 68.2887L66.6097 73.3324L71.7972 6.14775Z" fill="#F7DD77"/>
</g>
<path d="M38.2392 15.245C38.0594 15.2311 37.8795 15.2172 37.6907 15.2027C36.3867 15.102 35.325 14.7944 33.9968 15.0077C31.972 15.3388 29.9189 16.0377 28.002 16.7291C25.0329 17.8086 22.2968 20.2057 20.0221 22.3678C15.4845 26.6567 14.4467 34.0048 14.5913 39.982C14.6835 43.8251 16.6373 47.2252 18.7011 50.3721C19.5504 51.6742 20.6412 52.4264 21.891 53.3442C23.0987 54.2227 24.3036 55.2544 25.6545 55.9183C27.1624 56.6576 28.8488 56.8419 30.4702 57.1657C31.6911 57.4044 32.9037 57.7507 34.1426 57.8735C35.8934 58.0447 37.5654 57.2442 39.2492 56.8778C41.2822 56.4391 43.0615 55.8905 44.9714 55.0541C48.1163 53.6904 51.1802 51.851 53.0123 48.8605C54.9682 45.672 56.0097 42.0248 56.5275 38.3642C56.8868 35.8196 57.3209 33.0099 56.7028 30.4711C56.0915 27.9599 54.864 25.4642 53.7312 23.1474C52.9649 21.5899 51.9807 20.2774 50.8713 18.9462C49.9853 17.8849 48.4941 16.9304 47.1182 16.7068C46.5731 16.6196 46.037 16.6504 45.5058 16.5011C44.682 16.275 43.9079 15.8723 43.0834 15.6552C42.4712 15.4996 41.8003 15.52 41.1708 15.4714C40.1996 15.3964 39.2194 15.3207 38.2482 15.2457L38.2392 15.245Z" stroke="black" stroke-linecap="round" stroke-linejoin="round"/>
<path d="M19.903 34.9225C19.822 35.9723 19.7409 37.022 19.6605 38.0628C19.61 38.7178 19.5082 39.3327 19.6576 39.9761C19.773 40.4724 20.0372 40.917 20.1714 41.4057C20.7453 43.4628 21.4962 45.6869 22.9542 47.3068C23.2793 47.6659 23.6819 47.8414 23.9682 48.2336C24.1978 48.5401 24.3313 48.9205 24.5893 49.2112C25.0631 49.7532 25.8799 50.421 26.5779 50.6373C27.4702 50.9138 28.3736 51.0468 29.2597 51.404C30.4439 51.8836 31.7229 51.8379 32.9908 51.9358C34.1149 52.0226 34.9969 52.0817 36.0947 51.8054C37.2845 51.5092 38.3637 51.2405 39.4415 50.6378C41.3895 49.5426 43.1045 48.6551 44.6099 46.9662C45.9963 45.4125 47.2943 43.3646 47.6819 41.2734C47.8528 40.348 47.799 39.5224 48.1221 38.6177" stroke="black" stroke-linecap="round" stroke-linejoin="round"/>
<path d="M26.7021 29.346C26.6266 30.324 25.7743 31.0525 24.7941 30.9768C23.8139 30.9011 23.0835 30.0505 23.1591 29.0725C23.2346 28.0945 24.0869 27.366 25.0671 27.4417C26.0472 27.5174 26.7776 28.3681 26.7021 29.346Z" fill="black"/>
<path d="M46.8258 32.6779C47.8042 32.7535 48.6585 32.0234 48.7339 31.0472C48.8092 30.071 48.0772 29.2184 47.0988 29.1429C46.1204 29.0673 45.2662 29.7974 45.1908 30.7736C45.1154 31.7498 45.8475 32.6024 46.8258 32.6779Z" fill="black"/>
</g>
<defs>
<filter id="filter0_d_747_324" x="1.28784" y="1.10403" width="74.5094" height="76.2284" filterUnits="userSpaceOnUse" color-interpolation-filters="sRGB">
<feFlood flood-opacity="0" result="BackgroundImageFix"/>
<feColorMatrix in="SourceAlpha" type="matrix" values="0 0 0 0 0 0 0 0 0 0 0 0 0 0 0 0 0 0 127 0" result="hardAlpha"/>
<feOffset dx="2" dy="2"/>
<feGaussianBlur stdDeviation="1"/>
<feColorMatrix type="matrix" values="0 0 0 0 0 0 0 0 0 0 0 0 0 0 0 0 0 0 0.2 0"/>
<feBlend mode="normal" in2="BackgroundImageFix" result="effect1_dropShadow_747_324"/>
<feBlend mode="normal" in="SourceGraphic" in2="effect1_dropShadow_747_324" result="shape"/>
</filter>
<clipPath id="clip0_747_324">
<rect width="71" height="73" fill="white" transform="translate(5.61987) rotate(4.41524)"/>
</clipPath>
</defs>
</svg>
