<svg width="118" height="120" viewBox="0 0 118 120" fill="none" xmlns="http://www.w3.org/2000/svg">
<g clip-path="url(#clip0_747_305)">
<g filter="url(#filter0_d_747_305)">
<path d="M89.0874 2.74655L1.56323 23.2796L22.6738 113.266L110.198 92.7324L89.0874 2.74655Z" fill="#EDF2EB"/>
</g>
<path d="M75.449 31.2022C76.0383 31.3302 76.5992 31.5536 77.1417 31.8067C78.3547 32.3716 79.5316 32.945 80.4076 33.9693C81.8941 35.6999 83.3699 36.9512 84.2521 39.1405C86.2017 43.9828 86.7187 49.2754 85.7225 54.4031C85.1555 57.3508 84.1727 60.2058 83.0023 62.9654C82.3826 64.4421 81.7034 65.882 81.0122 67.3247C76.8423 75.8848 71.0856 82.9915 64.9759 90.219C63.3041 92.1961 62.4262 93.2768 59.7201 92.796C53.4876 91.697 47.7013 86.7024 43.2504 82.5229C37.3465 76.9727 31.5122 70.7976 27.939 63.3693C26.2746 59.9055 24.5562 55.4526 24.7687 51.5358C24.965 48.0918 27.2235 45.0389 29.8392 42.9672C29.9577 42.876 30.0761 42.7848 30.2066 42.6908C32.8329 40.7181 35.9367 39.318 39.1922 38.998C41.107 38.815 43.0573 39.0548 44.8882 39.6523C46.304 40.1062 47.6566 40.7778 48.8465 41.6778C49.3392 42.044 49.856 42.4045 50.2267 42.9008C50.3385 43.0521 50.4169 43.2239 50.5471 43.3455C50.6801 43.4791 50.8352 43.5441 51.0052 43.6184C51.5059 43.8559 51.7965 44.2822 52.1354 44.6972C52.3328 44.9425 52.8101 45.7307 53.1977 45.7031C53.5853 45.6756 53.6423 44.8888 53.7277 44.6026C54.0628 43.4843 54.308 42.3618 54.8548 41.3333C55.1794 40.7119 55.5594 40.0015 55.9852 39.4325C56.2911 39.0565 56.6295 38.7108 56.9828 38.3744C57.2943 38.0224 57.6029 37.6583 57.9088 37.2823C58.458 36.697 59.1253 36.2362 59.7247 35.7025C60.5461 34.9773 61.286 34.2839 62.2489 33.7284C63.4331 33.0322 64.8546 32.3183 66.1864 31.9805C67.1929 31.719 68.2291 31.4759 69.2469 31.2625C69.9244 31.1163 70.6033 31.0838 71.2949 30.9976C72.6931 30.8344 74.0493 30.8713 75.4313 31.181L75.449 31.2022Z" fill="#E86746"/>
<path d="M47.5693 56.2283C47.5552 56.1683 47.4831 55.9696 47.445 55.9152C47.3863 55.8275 47.3155 55.7427 47.2568 55.655C47.1507 55.5278 47.0169 55.4451 46.8646 55.392C46.7782 55.3489 46.7485 55.3305 46.6677 55.3114C46.548 55.2888 46.4283 55.2662 46.3114 55.2556C46.2604 55.2549 46.2093 55.2541 46.1463 55.2563C45.996 55.2661 45.8338 55.2789 45.6771 55.3156C45.5205 55.3524 45.3695 55.4131 45.2213 55.4859C45.1731 55.4972 45.1306 55.5326 45.088 55.5679C44.9547 55.6499 44.8122 55.7467 44.7114 55.8591C44.5894 55.9892 44.4971 56.1376 44.4317 56.2924C44.2876 56.4911 44.164 56.7229 44.1722 56.9746C44.1719 57.1902 44.1837 57.4029 44.2345 57.6193C44.2824 57.8236 44.3572 58.0342 44.4385 58.218C44.4759 58.3233 44.5346 58.411 44.5933 58.4987C44.7107 58.674 44.8281 58.8493 44.9881 58.9893C45.216 59.2021 45.5226 59.371 45.8407 59.3725L46.1773 59.3442C46.3942 59.2933 46.5849 59.1852 46.7403 59.0346C46.8162 58.9788 46.8772 58.9138 46.9354 58.8367C47.0546 58.6946 47.1859 58.5497 47.2846 58.3744C47.3861 58.2112 47.4579 58.0295 47.5297 57.8478C47.561 57.7644 47.5894 57.669 47.6058 57.5764C47.6387 57.3912 47.6807 57.1911 47.6866 56.9996C47.6925 56.808 47.6715 56.6101 47.6385 56.415C47.6272 56.3669 47.6159 56.3188 47.6075 56.2828C47.6018 56.2587 47.599 56.2467 47.5934 56.2227L47.5693 56.2283Z" fill="black"/>
<path d="M61.6326 51.8007C61.4198 51.3815 61.0553 51.0739 60.6134 50.924C60.2939 50.8088 59.9517 50.813 59.6236 50.8773C59.3047 50.9268 58.9416 51.1134 58.7188 51.3558C58.3527 51.746 58.1402 52.303 58.3032 52.8353C58.3688 53.0608 58.489 53.2481 58.6546 53.4122C58.6431 53.5797 58.6436 53.7444 58.6831 53.9126C58.7507 54.2011 58.8999 54.4577 59.0917 54.6789C59.4575 55.1003 60.0935 55.3187 60.6393 55.1527C61.0192 55.0382 61.3256 54.8268 61.5407 54.4974C61.645 54.3462 61.7289 54.1617 61.7617 53.9765C61.9227 53.2541 61.9853 52.4913 61.6354 51.8127L61.6326 51.8007Z" fill="black"/>
<path d="M46.5303 63.775C46.5303 63.775 46.5083 63.8436 46.5047 63.8825C46.4103 64.5639 46.692 65.3853 46.8952 66.035C47.1303 66.7659 47.8409 67.4106 48.3979 67.8885C49.0498 68.4456 49.7068 68.862 50.4908 69.2233C51.3583 69.6157 52.3885 70.1601 53.325 70.3588C54.1687 70.5412 55.2408 70.5052 56.0826 70.4092C57.6552 70.2304 59.0382 69.6777 60.3191 68.7433C61.3176 68.0146 62.328 66.9027 62.7482 65.7138C63.1336 64.6471 63.2321 63.4956 63.4709 62.3999C63.6191 61.7312 63.5589 61.1494 63.5661 60.4758C63.574 60.3471 63.5976 60.1768 63.5333 60.0651C63.4605 59.9173 63.4838 59.9626 63.3344 59.9216C62.7691 59.7879 62.1274 60.1413 61.5965 60.3166C60.5013 60.6876 59.4174 61.1067 58.294 61.3576C55.9509 61.8819 53.6149 62.3285 51.2774 62.8769C50.4821 63.0635 49.6833 63.2889 48.8796 63.4394C48.3559 63.5369 47.8501 63.44 47.3222 63.4117C46.9623 63.3947 46.6526 63.4294 46.5544 63.7694L46.5303 63.775Z" stroke="black" stroke-linecap="round" stroke-linejoin="round"/>
<path d="M82.1382 47.903C82.1923 48.8919 82.2414 49.8059 82.0524 50.7885C81.9191 51.4664 81.8247 52.1478 81.7452 52.8384C81.6593 53.5559 81.5826 54.2586 81.3769 54.9534C81.3136 55.1712 80.9475 56.1572 81.0854 56.3658" stroke="black" stroke-linecap="round" stroke-linejoin="round"/>
<path d="M79.0666 63.8C77.4732 66.5448 75.7934 69.2464 74.331 72.0618C73.7279 73.2303 72.9373 74.3033 72.2599 75.4258C71.9951 75.8682 71.7451 76.3199 71.5518 76.7964C71.4395 77.0763 71.3792 77.6863 71.0772 77.8079" stroke="black" stroke-linecap="round" stroke-linejoin="round"/>
</g>
<defs>
<filter id="filter0_d_747_305" x="1.56323" y="2.74656" width="112.635" height="114.519" filterUnits="userSpaceOnUse" color-interpolation-filters="sRGB">
<feFlood flood-opacity="0" result="BackgroundImageFix"/>
<feColorMatrix in="SourceAlpha" type="matrix" values="0 0 0 0 0 0 0 0 0 0 0 0 0 0 0 0 0 0 127 0" result="hardAlpha"/>
<feOffset dx="2" dy="2"/>
<feGaussianBlur stdDeviation="1"/>
<feColorMatrix type="matrix" values="0 0 0 0 0 0 0 0 0 0 0 0 0 0 0 0 0 0 0.2 0"/>
<feBlend mode="normal" in2="BackgroundImageFix" result="effect1_dropShadow_747_305"/>
<feBlend mode="normal" in="SourceGraphic" in2="effect1_dropShadow_747_305" result="shape"/>
</filter>
<clipPath id="clip0_747_305">
<rect width="97.4251" height="100.131" fill="white" transform="translate(0 22.2517) rotate(-13.2028)"/>
</clipPath>
</defs>
</svg>
